<?xml version="1.0" standalone="no"?>
<!DOCTYPE svg PUBLIC "-//W3C//DTD SVG 20010904//EN"
 "http://www.w3.org/TR/2001/REC-SVG-20010904/DTD/svg10.dtd">
<svg version="1.0" xmlns="http://www.w3.org/2000/svg"
 width="1024.000000pt" height="1024.000000pt" viewBox="0 0 1024.000000 1024.000000"
 preserveAspectRatio="xMidYMid meet">

<g transform="translate(0.000000,1024.000000) scale(0.100000,-0.100000)"
fill="#000000" stroke="none">
<path d="M4962 9114 c-52 -36 -9 -145 52 -130 64 16 87 88 40 125 -32 25 -61
27 -92 5z"/>
<path d="M5251 9111 c-27 -27 -27 -61 0 -95 17 -22 28 -27 58 -24 30 2 39 9
56 40 l20 37 -21 28 c-28 37 -84 43 -113 14z"/>
<path d="M4673 9106 c-42 -19 -54 -67 -25 -105 33 -45 91 -40 118 10 13 26 14
36 3 61 -9 23 -46 51 -62 48 -1 -1 -16 -7 -34 -14z"/>
<path d="M5561 9084 c-12 -15 -21 -34 -21 -43 0 -27 27 -58 61 -70 28 -10 34
-8 60 18 17 17 29 40 29 55 0 63 -89 91 -129 40z"/>
<path d="M4366 9017 c-14 -15 -26 -35 -26 -45 0 -33 38 -72 70 -72 19 0 36 9
49 26 38 48 21 99 -36 110 -26 5 -37 1 -57 -19z"/>
<path d="M5885 9028 c-27 -15 -35 -28 -35 -60 0 -64 80 -91 119 -42 27 35 26
55 -4 88 -26 28 -48 32 -80 14z"/>
<path d="M4080 8930 c-29 -29 -26 -74 6 -99 15 -12 33 -21 41 -21 23 0 63 47
63 75 0 32 -33 65 -65 65 -14 0 -34 -9 -45 -20z"/>
<path d="M6145 8925 c-47 -46 -21 -105 46 -105 69 0 88 96 24 120 -37 14 -43
13 -70 -15z"/>
<path d="M3717 8812 c-23 -25 -21 -58 3 -82 41 -41 100 -13 100 46 0 17 -5 35
-12 42 -18 18 -73 14 -91 -6z"/>
<path d="M6471 8816 c-7 -8 -13 -27 -14 -42 -2 -21 5 -31 29 -46 37 -22 60
-16 79 21 21 41 1 75 -46 79 -22 2 -40 -2 -48 -12z"/>
<path d="M4880 8783 c-229 -18 -607 -99 -845 -180 -395 -135 -815 -389 -1101
-666 -71 -68 -128 -116 -132 -111 -4 6 -37 31 -74 55 -61 41 -65 46 -52 64 20
27 17 52 -6 65 -29 16 -58 4 -75 -31 -12 -23 -19 -27 -33 -20 -36 19 -178 41
-266 41 -135 0 -266 -41 -266 -84 0 -6 29 -40 65 -75 75 -74 103 -126 118
-220 11 -74 8 -92 -48 -331 -14 -58 -25 -134 -25 -170 l0 -65 -23 29 -23 28
-36 -55 c-91 -136 -198 -384 -223 -515 -24 -124 -15 -296 20 -384 5 -13 -13
-9 -88 22 -198 81 -314 103 -396 75 -82 -27 -90 -62 -33 -139 22 -28 47 -66
56 -84 24 -47 46 -155 46 -232 1 -95 24 -193 65 -267 19 -35 35 -65 35 -68 0
-2 -15 1 -32 6 -97 27 -238 -14 -238 -70 0 -21 95 -190 177 -313 104 -159 225
-274 341 -326 l42 -19 -46 -54 c-26 -30 -47 -55 -48 -56 -1 -2 -45 -12 -97
-22 -187 -39 -321 -95 -455 -189 -142 -101 -166 -147 -101 -196 19 -15 38 -26
42 -26 19 0 160 -116 273 -224 67 -64 140 -128 162 -142 22 -15 40 -28 40 -31
0 -2 -21 -13 -47 -24 -144 -62 -288 -175 -281 -222 3 -22 14 -29 165 -115 69
-38 145 -96 274 -206 163 -140 265 -205 411 -264 l28 -12 -55 -84 c-97 -149
-127 -234 -87 -254 9 -5 55 -12 102 -16 87 -6 194 -30 380 -84 135 -39 236
-61 329 -70 l74 -7 13 -60 c7 -33 25 -109 39 -170 21 -86 28 -146 32 -275 6
-182 12 -200 67 -200 32 0 84 27 124 64 23 20 32 21 290 21 250 0 272 2 342
23 41 13 80 28 87 34 10 8 13 6 13 -8 0 -43 24 -100 54 -130 50 -50 130 -70
220 -55 73 12 204 68 278 119 24 16 67 41 96 56 l52 26 0 -41 c0 -62 26 -107
75 -131 l42 -20 -13 -37 c-38 -105 23 -227 123 -247 28 -5 31 -10 36 -56 19
-155 154 -293 287 -292 66 0 126 28 188 88 53 50 81 101 102 185 14 57 20 66
46 74 106 34 161 152 119 254 -8 20 -14 37 -13 37 75 27 118 80 118 145 0 22
4 41 8 41 5 0 62 -35 128 -77 182 -118 317 -156 439 -122 60 17 121 83 130
140 l7 45 81 -25 c79 -25 91 -26 344 -26 253 0 262 -1 285 -21 38 -35 91 -64
119 -64 14 0 35 9 47 20 20 19 22 30 22 153 0 73 5 161 10 197 18 110 74 332
85 335 5 2 68 13 138 25 71 12 209 44 308 71 100 26 226 53 282 59 162 18 165
19 172 40 10 30 -39 125 -148 291 l-18 26 78 37 c108 52 215 125 378 261 157
130 226 179 333 232 41 21 77 44 82 53 16 29 -17 78 -87 129 -61 46 -177 109
-228 126 l-20 6 20 11 c32 18 131 104 260 228 70 66 144 127 175 144 76 40
120 74 120 93 0 78 -238 238 -443 297 -46 14 -121 30 -166 37 l-83 13 -45 58
c-25 33 -44 60 -42 62 2 1 35 20 72 40 138 76 260 215 391 446 88 156 94 171
72 204 -22 35 -76 49 -167 44 -44 -3 -79 -3 -79 -2 0 2 11 20 25 40 41 60 64
156 74 301 8 123 11 137 45 205 20 40 52 92 71 116 19 24 35 48 35 54 0 21
-59 67 -95 74 -22 4 -73 2 -114 -5 -80 -12 -300 -82 -340 -108 -23 -15 -24
-15 -17 8 4 13 15 66 24 118 20 117 7 236 -40 380 -33 100 -188 421 -214 442
-13 10 -19 8 -39 -17 l-24 -29 -1 78 c0 54 -11 122 -36 225 -31 125 -35 160
-32 232 5 111 36 181 114 255 73 71 71 93 -14 126 -49 20 -75 23 -197 23 -132
1 -183 -7 -270 -40 -10 -4 -15 0 -15 13 0 11 -9 28 -20 38 -16 15 -26 17 -48
9 -37 -13 -38 -63 -2 -81 14 -7 18 -13 10 -13 -8 0 -46 -22 -85 -49 l-70 -48
-97 93 c-607 580 -1386 880 -2267 872 -113 -1 -226 -3 -251 -5z m655 -128
c191 -23 294 -42 440 -80 524 -136 991 -400 1344 -758 67 -68 82 -89 77 -105
-4 -13 -13 -19 -21 -15 -8 3 -12 9 -9 14 3 5 0 9 -6 9 -7 0 -24 9 -40 20 -15
11 -29 18 -31 16 -2 -2 -13 6 -24 17 -11 11 -13 16 -5 12 13 -8 13 -6 1 8 -7
9 -17 14 -22 12 -4 -3 -16 2 -27 12 -86 84 -352 273 -526 372 -169 97 -484
229 -656 275 -120 32 -379 81 -535 102 -146 19 -484 22 -640 5 -320 -34 -633
-108 -859 -203 -348 -145 -660 -338 -922 -570 -142 -125 -141 -125 -155 -94
-10 21 -7 29 20 63 70 87 289 274 434 372 422 283 860 447 1362 510 88 11 174
22 190 25 63 9 486 -3 610 -19z m-75 -116 c197 -24 368 -57 550 -105 245 -65
238 -61 260 -128 14 -44 56 -88 110 -116 19 -10 96 -34 171 -53 141 -36 223
-72 321 -138 93 -63 179 -139 172 -151 -5 -7 -2 -8 5 -4 15 10 53 -23 44 -37
-3 -5 -2 -7 4 -4 15 9 107 -89 98 -104 -5 -7 -4 -10 3 -5 24 14 20 -14 -4 -33
l-26 -20 -56 58 c-50 51 -241 201 -256 201 -7 0 -177 100 -190 111 -6 5 -3 16
7 27 15 17 12 18 -81 18 -53 -1 -108 3 -122 7 -14 4 -18 4 -10 1 15 -7 30 -24
30 -36 0 -3 -61 -36 -135 -73 l-135 -66 -43 25 c-23 14 -89 37 -147 52 -118
30 -198 63 -247 100 -19 14 -72 38 -119 54 l-86 29 47 -48 c25 -26 54 -61 64
-77 34 -56 147 -124 256 -154 33 -10 60 -21 61 -26 3 -28 19 -44 44 -44 16 0
31 -4 34 -9 7 -11 -95 -106 -138 -128 -17 -9 -55 -24 -84 -33 -29 -9 -54 -21
-55 -26 -1 -5 52 -13 118 -17 l120 -9 29 37 c28 36 29 36 88 29 46 -5 62 -4
69 7 7 11 12 10 27 -9 9 -12 39 -30 65 -40 l47 -18 -42 -31 c-58 -42 -116
-101 -133 -133 -15 -30 -57 -40 -161 -40 -110 0 -235 -57 -304 -140 l-42 -50
-104 0 -104 0 0 66 c0 57 2 65 18 61 49 -14 69 -15 82 -7 11 7 4 10 -26 10
-72 0 -73 3 -76 200 l-3 175 -317 3 -318 2 0 -188 0 -188 -52 3 c-38 2 -49 0
-38 -7 8 -5 32 -10 53 -10 l38 0 -3 -56 -3 -57 -110 2 -110 2 -38 45 c-76 88
-195 135 -343 135 l-91 0 -37 49 c-43 56 -124 130 -144 130 -7 0 -10 5 -6 12
5 8 2 9 -9 5 -9 -3 -19 -2 -22 3 -3 4 18 14 46 21 31 8 62 24 77 41 24 25 28
26 44 12 13 -13 28 -14 68 -9 50 7 53 6 88 -28 l37 -36 102 6 c108 6 140 15
113 33 -8 5 -26 10 -40 10 -32 0 -110 49 -180 112 l-52 48 27 10 c14 5 35 10
46 10 15 0 18 5 13 24 -5 21 -1 24 38 30 55 9 193 77 235 116 18 16 49 51 68
77 20 27 48 58 63 70 26 22 25 22 -56 -3 -45 -14 -111 -43 -145 -64 -65 -39
-161 -75 -278 -105 -36 -9 -82 -26 -102 -38 l-37 -23 -118 57 c-74 35 -119 63
-119 72 0 9 6 13 15 10 8 -4 10 -8 4 -12 -6 -3 0 -11 14 -18 21 -10 24 -9 24
9 0 10 -4 17 -8 14 -5 -3 -9 1 -9 8 0 8 6 12 14 9 7 -3 13 0 13 6 0 10 -14 15
-34 12 -4 -1 -14 3 -21 9 -10 8 -15 8 -21 -1 -5 -8 -3 -9 6 -4 9 6 11 4 5 -5
-7 -11 -10 -10 -19 1 -7 9 -25 13 -50 11 -25 -2 -35 -6 -27 -11 7 -5 -20 -6
-60 -4 l-74 4 25 -20 c18 -15 21 -21 9 -21 -24 0 -195 -105 -299 -183 -52 -39
-97 -74 -100 -77 -3 -3 -21 -18 -41 -33 -26 -20 -38 -24 -47 -15 -8 8 -15 8
-27 -2 -8 -7 -18 -10 -22 -7 -3 4 -13 1 -22 -6 -29 -22 9 22 84 99 82 84 164
151 255 209 116 74 153 91 260 119 159 41 201 56 252 88 52 33 88 82 88 121 0
29 20 39 165 81 184 53 376 92 610 125 188 27 424 27 635 0z m-1718 -577 c10
-15 24 -36 32 -47 15 -20 13 -22 -77 -54 -103 -37 -207 -91 -314 -163 -72 -48
-93 -57 -93 -38 0 6 4 10 8 10 5 0 13 10 19 23 19 42 249 230 348 285 33 19
59 13 77 -16z m2995 -41 c106 -75 224 -176 269 -230 24 -29 25 -32 6 -20 -12
8 -22 17 -22 22 0 4 -8 4 -17 -2 -19 -10 -78 13 -69 28 3 4 0 8 -7 8 -7 0 -52
24 -102 54 -49 29 -124 65 -167 79 l-76 26 29 39 c16 21 29 45 29 52 0 26 30
12 127 -56z m1312 -54 c-39 -33 -65 -76 -89 -147 -30 -88 -23 -219 19 -384 79
-304 17 -461 -256 -647 -56 -39 -120 -90 -142 -115 -23 -26 -41 -42 -41 -37 0
6 9 18 20 28 12 10 18 25 15 33 -4 10 0 12 11 8 11 -4 15 -2 11 7 -3 7 4 24
14 38 10 13 19 21 19 18 0 -9 75 56 147 127 63 63 84 100 109 189 18 66 18 67
-10 20 -24 -40 -64 -75 -101 -89 -16 -6 -18 -5 -7 5 20 21 14 33 -8 14 -33
-30 -23 -9 20 40 43 50 55 78 17 42 -13 -12 -22 -25 -19 -30 2 -4 -1 -6 -6 -5
-5 2 -27 -13 -49 -32 -80 -72 -85 -60 -6 14 60 56 91 95 113 139 31 64 61 207
59 281 -1 30 -4 21 -13 -39 -7 -44 -23 -102 -34 -129 -27 -60 -99 -161 -143
-201 -27 -23 -29 -24 -11 -4 27 31 28 38 2 36 -13 -1 -19 -6 -15 -16 4 -11 3
-12 -10 -1 -16 13 -14 17 20 65 31 42 70 112 57 100 -6 -5 -37 -47 -70 -92
-33 -45 -62 -80 -64 -77 -6 6 -78 -91 -78 -105 0 -6 -4 -12 -9 -15 -5 -4 -7 4
-4 16 4 23 4 23 -12 3 -17 -20 -17 -20 -10 3 9 32 0 27 -24 -14 -24 -40 -26
-48 -9 -38 7 4 8 3 4 -4 -4 -6 -2 -22 4 -34 11 -23 11 -23 -6 -3 -16 19 -16
19 -10 -8 5 -19 2 -33 -10 -45 -16 -15 -17 -13 -12 38 3 30 15 79 28 108 20
46 25 51 39 40 14 -12 14 -11 2 4 -11 15 -9 24 22 65 20 27 59 71 87 98 127
124 209 270 235 419 4 22 13 49 21 60 8 11 13 32 13 46 -1 20 -2 21 -6 5 -7
-27 -23 -44 -23 -24 0 9 13 34 28 55 28 39 52 88 34 69 -6 -5 -36 -41 -67 -80
-32 -38 -61 -69 -66 -67 -5 1 -9 -2 -9 -8 0 -5 -9 -20 -19 -32 -11 -13 -29
-34 -40 -48 -14 -18 -19 -20 -17 -8 1 9 11 25 22 35 11 10 14 14 7 9 -7 -5
-13 -5 -13 0 0 5 -5 1 -11 -8 -5 -10 -16 -18 -24 -18 -8 0 -17 -5 -21 -12 -5
-7 -2 -9 9 -5 11 4 14 2 11 -8 -3 -8 -11 -12 -18 -9 -8 3 -17 -8 -24 -28 l-12
-33 6 40 c8 53 28 91 78 144 39 42 28 41 -21 -3 -13 -11 -23 -16 -23 -12 0 12
-60 -24 -60 -37 -1 -19 -39 -65 -40 -47 -2 24 -39 -72 -41 -105 -1 -27 -2 -26
-9 10 -16 81 22 204 85 274 97 107 234 160 465 180 9 0 5 -8 -11 -22z m-5564
-21 c145 -50 264 -150 301 -254 7 -21 13 -75 12 -122 0 -71 -2 -78 -8 -45 -8
40 -56 155 -64 155 -2 0 -11 3 -19 6 -17 6 -19 -26 -2 -38 5 -4 6 -10 2 -14
-4 -4 -16 5 -28 20 -28 36 -92 96 -102 96 -4 0 11 -21 35 -46 50 -53 64 -77
76 -132 11 -45 -1 -78 -18 -52 -5 8 -10 22 -10 30 -1 21 -25 51 -35 42 -5 -4
-5 2 -1 13 4 11 4 17 1 13 -7 -7 -44 24 -39 33 4 8 -41 55 -124 128 l-72 63
19 -44 c10 -24 22 -59 25 -78 11 -54 66 -210 91 -261 30 -58 88 -133 186 -236
42 -45 89 -103 104 -130 28 -51 68 -183 63 -209 -2 -8 -26 25 -55 73 -56 96
-180 257 -263 343 -32 33 -45 42 -31 23 12 -18 26 -35 31 -38 11 -7 90 -123
90 -132 0 -5 -5 -1 -10 7 -9 13 -11 13 -21 0 -10 -13 -10 -13 -6 0 3 9 -6 28
-18 44 l-23 29 18 -54 c9 -30 16 -56 14 -58 -4 -5 -65 66 -96 113 -39 58 -67
130 -82 216 -11 60 -14 67 -15 35 -1 -81 26 -204 60 -272 33 -65 103 -145 184
-211 l40 -33 -50 34 c-27 19 -58 33 -68 31 -13 -2 -23 8 -33 32 -8 19 -16 34
-17 34 -9 0 0 -50 13 -66 14 -18 14 -18 -6 -1 -11 9 -23 15 -26 12 -2 -3 -5 2
-5 10 0 8 5 15 10 15 5 0 4 6 -2 13 -6 8 -8 17 -4 20 3 4 -1 15 -9 24 -9 10
-23 32 -32 48 l-16 30 6 -30 c4 -16 15 -39 24 -50 13 -14 16 -31 13 -59 -2
-21 0 -43 4 -50 4 -6 -5 2 -20 19 -15 16 -41 53 -58 80 -26 42 -30 45 -24 20
16 -75 76 -178 142 -243 37 -36 61 -62 53 -57 -9 5 -11 4 -6 -4 4 -6 11 -9 16
-6 13 8 115 -80 139 -120 11 -20 16 -33 10 -29 -7 4 -10 1 -7 -7 3 -8 11 -13
17 -11 7 1 10 -2 6 -7 -3 -6 -30 13 -59 42 -44 42 -52 55 -42 67 9 13 9 13 -6
2 -15 -12 -21 -11 -42 6 -14 11 -22 23 -18 27 4 5 2 5 -5 1 -16 -9 -135 76
-183 132 -82 97 -129 238 -115 352 4 30 20 106 36 168 39 152 46 249 25 332
-18 69 -55 140 -94 178 l-24 25 84 -5 c53 -3 111 -15 163 -32z m1439 -66 l48
-22 -23 -15 c-13 -9 -41 -32 -61 -51 l-38 -36 -142 -2 c-79 -1 -156 -3 -173
-3 -23 -1 -27 -3 -15 -11 8 -5 11 -10 5 -10 -5 0 -20 8 -33 18 l-23 18 58 39
c32 21 107 67 168 102 l110 63 35 -34 c19 -19 57 -44 84 -56z m2841 -65 c61
-40 126 -90 145 -110 34 -37 34 -37 5 -19 -33 22 -87 38 -195 61 -58 12 -94
13 -160 7 l-85 -9 -52 55 c-29 30 -53 56 -53 57 0 7 61 33 77 33 10 0 31 16
46 35 l29 36 66 -37 c37 -20 117 -69 177 -109z m-3605 -29 c0 -3 -4 -8 -10
-11 -5 -3 -10 -1 -10 4 0 6 5 11 10 11 6 0 10 -2 10 -4z m320 -41 c10 -12 9
-15 -4 -16 -24 -2 -29 -4 -56 -18 -24 -13 -24 -12 4 18 34 35 39 37 56 16z
m-186 -4 c3 -5 -3 -11 -13 -14 -14 -3 -18 -1 -14 9 6 16 19 18 27 5z m4354
-48 c-8 -10 -20 -27 -26 -38 -9 -17 -10 -17 -9 7 1 15 4 25 6 23 2 -2 10 2 18
10 20 21 29 19 11 -2z m-3774 -75 c70 -23 136 -66 166 -108 19 -27 20 -30 4
-30 -30 0 -123 33 -118 42 3 4 -1 5 -9 2 -8 -3 -17 2 -21 11 -3 9 -11 13 -16
10 -6 -4 -18 -1 -27 7 -14 11 -16 11 -8 -2 8 -13 7 -13 -8 -1 -11 9 -17 10
-17 2 0 -6 -5 -11 -11 -11 -5 0 -7 5 -4 10 3 6 -3 10 -14 10 -12 0 -21 5 -21
10 0 13 -47 13 -55 0 -4 -6 -13 -7 -23 -1 -9 4 -23 6 -29 4 -7 -3 -13 0 -13 5
0 6 -40 9 -95 8 -52 0 -95 0 -95 1 0 7 125 47 165 52 74 11 182 2 249 -21z
m-815 8 c47 -25 63 -83 37 -134 -30 -58 -105 -72 -143 -28 -43 50 -42 108 2
152 27 27 63 31 104 10z m2261 -211 c0 -149 4 -233 12 -250 l11 -25 409 0 409
0 -37 -37 -37 -37 7 -120 c3 -67 9 -131 12 -143 l6 -23 -381 0 -381 0 0 -639
0 -639 -23 -15 c-19 -12 -24 -13 -24 -2 0 8 4 12 9 9 10 -6 9 -18 12 183 2 89
-1 167 -5 175 -6 8 -9 -6 -10 -37 -1 -40 -3 -45 -9 -25 -7 21 -8 22 -9 5 -1
-17 -3 -18 -11 -5 -8 12 -10 9 -8 -10 3 -21 -1 -25 -22 -25 -20 0 -26 -6 -28
-27 -4 -34 -25 -36 -41 -5 l-11 22 6 -23 c3 -13 3 -35 -1 -50 -7 -25 -8 -26
-15 -7 -5 11 -9 39 -9 62 -1 24 -24 104 -55 190 -30 81 -58 162 -64 178 -8 22
-11 -57 -11 -288 -1 -229 -4 -318 -12 -315 -8 3 -11 183 -10 646 l1 642 -343
0 -344 0 -7 -46 c-3 -26 -6 -59 -5 -73 0 -24 1 -24 10 -6 7 16 8 13 3 -11 -4
-28 -2 -32 20 -38 15 -3 26 -11 26 -16 0 -6 9 -10 20 -10 11 0 20 -6 20 -14 0
-16 21 -26 55 -26 13 0 26 -6 28 -12 4 -9 6 -8 6 3 1 13 18 15 121 11 97 -4
120 -2 120 9 2 65 70 -235 93 -410 9 -64 12 -169 9 -312 l-4 -216 -31 6 c-34
7 -40 23 -116 287 -21 70 -22 72 -64 83 -82 23 -187 39 -187 29 0 -5 -5 -64
-11 -130 -8 -84 -8 -128 -1 -143 11 -23 10 -23 -86 9 -53 18 -120 38 -148 45
-51 12 -52 13 -39 39 7 15 18 70 25 122 6 52 43 317 81 588 38 272 67 502 64
511 -3 10 -20 31 -38 47 l-32 29 376 3 377 2 6 31 c3 17 6 130 6 250 l0 219
155 0 155 0 0 -225z m1461 196 c30 -11 64 -27 74 -35 17 -12 13 -13 -35 -4
-52 10 -158 5 -209 -9 -17 -4 -22 -3 -17 5 10 16 -7 15 -22 0 -7 -7 -16 -13
-20 -14 -4 0 -20 -3 -37 -7 -16 -4 -43 -9 -60 -12 -59 -10 -71 -13 -127 -39
-88 -40 -100 -32 -47 29 38 43 106 84 168 102 72 20 262 11 332 -16z m570 0
c23 -23 29 -38 29 -72 0 -89 -94 -133 -152 -71 -35 37 -41 64 -24 105 29 71
97 88 147 38z m-3598 -48 c-7 -2 -19 -2 -25 0 -7 3 -2 5 12 5 14 0 19 -2 13
-5z m175 -220 c144 -3 261 -9 260 -12 -2 -4 -53 -54 -114 -112 l-111 -105
-176 4 -177 5 0 -176 0 -176 43 -6 c38 -5 347 -25 389 -25 12 0 -15 -40 -83
-125 -83 -104 -104 -124 -122 -120 -12 2 -58 11 -102 20 -44 8 -91 18 -104 21
l-24 5 5 -215 c3 -166 8 -219 19 -232 12 -15 12 -16 -1 -11 -28 11 -265 86
-283 89 -17 3 -18 31 -17 575 l0 572 -22 15 c-21 15 -8 16 167 16 105 0 308
-3 453 -7z m2622 -3 c0 -4 -7 -13 -15 -20 -13 -11 -15 -55 -15 -286 l0 -273
103 6 c56 3 103 7 105 8 1 1 4 120 5 263 l2 260 -24 26 -24 26 173 0 173 0
-22 -23 -22 -24 3 -564 3 -564 -130 -43 c-71 -24 -137 -46 -145 -49 -12 -4
-13 -3 -2 8 9 10 12 70 12 231 0 168 -3 218 -12 218 -13 0 -51 -10 -145 -36
l-53 -14 -2 -241 -3 -241 -35 -14 c-168 -64 -221 -80 -216 -68 3 7 6 323 7
701 1 631 0 688 -16 699 -15 11 -15 13 2 17 30 8 293 6 293 -3z m-2230 -14 c0
-8 6 -17 13 -20 6 -3 -23 -4 -66 -3 -77 1 -78 2 -57 19 28 23 110 25 110 4z
m1824 8 c9 -3 16 -12 16 -20 0 -11 -23 -14 -112 -14 l-113 0 30 20 c22 15 47
20 97 20 36 0 73 -3 82 -6z m-2993 -60 c9 -11 10 -20 2 -32 -13 -22 -43 -22
-56 -1 -24 38 25 68 54 33z m4055 -6 c4 -15 1 -25 -12 -35 -16 -11 -21 -11
-37 6 -25 24 -16 51 17 51 17 0 27 -7 32 -22z m92 -160 c4 -21 -37 -36 -48
-17 -13 20 1 40 24 37 11 -2 22 -10 24 -20z m-4176 -38 c52 -23 81 -51 60 -58
-7 -2 -26 -15 -41 -28 l-29 -24 -7 40 c-4 21 -16 51 -27 65 -24 30 -15 31 44
5z m-531 -67 c13 -16 12 -17 -3 -4 -10 7 -18 15 -18 17 0 8 8 3 21 -13z m-364
-136 c142 -150 209 -263 258 -432 32 -112 46 -248 23 -240 -10 4 -18 34 -26
93 -14 105 -39 195 -52 187 -6 -3 -7 1 -4 9 6 16 -54 131 -64 122 -3 -3 -11 2
-18 12 -7 9 -16 13 -20 9 -5 -4 -4 -11 1 -15 6 -4 10 -22 11 -40 1 -30 -3 -25
-43 47 -24 45 -46 81 -47 81 -4 0 41 -117 53 -140 5 -10 4 -23 -5 -34 -7 -11
-11 -22 -9 -27 3 -4 1 -11 -5 -14 -6 -4 -8 -15 -5 -26 12 -38 -5 -18 -35 41
-32 64 -64 173 -76 260 l-7 55 -8 -40 c-15 -87 -30 -226 -29 -267 1 -24 1 -47
1 -53 -1 -5 -21 11 -46 35 l-45 44 13 -35 c6 -18 18 -40 25 -47 19 -20 35 -54
36 -77 1 -11 7 -19 14 -18 6 2 9 -4 6 -12 -5 -12 -12 -10 -34 12 -15 16 -32
37 -38 48 -8 14 -11 15 -12 5 0 -31 60 -117 127 -181 65 -63 68 -67 48 -79
-16 -10 -18 -10 -8 1 10 10 9 17 -9 36 -23 24 -48 33 -29 9 9 -11 7 -13 -11
-11 -33 4 -34 4 -12 20 22 16 12 20 -16 5 -15 -8 -25 -1 -60 36 -90 98 -122
244 -86 396 17 71 133 331 146 326 3 -2 47 -47 97 -101z m6010 -10 c73 -157
94 -220 100 -310 12 -158 -48 -278 -184 -367 -77 -52 -93 -60 -74 -37 6 8 8
17 4 21 -4 4 0 4 10 0 12 -4 16 -2 12 7 -3 8 17 36 46 64 52 51 119 146 119
168 -1 7 -6 5 -14 -5 -7 -10 -16 -15 -20 -11 -4 4 -4 0 -1 -9 4 -9 2 -19 -3
-22 -5 -3 -9 2 -8 12 0 9 -5 16 -11 15 -18 -4 -16 6 6 25 10 10 26 37 36 62 9
25 19 51 22 58 3 7 -20 -13 -52 -43 -31 -31 -60 -53 -63 -50 -4 3 -1 9 5 13
14 9 26 85 18 113 -4 12 -10 17 -14 11 -3 -5 -6 48 -6 119 0 70 -3 125 -6 121
-3 -4 -15 -56 -27 -115 -14 -72 -32 -132 -56 -180 -23 -46 -35 -63 -34 -47 2
34 -12 90 -22 90 -10 0 -8 17 14 90 9 30 15 65 15 79 -1 24 -2 24 -8 -4 -4
-18 -12 -29 -21 -28 -15 3 -100 -118 -133 -188 -23 -52 -67 -216 -68 -259 0
-19 -7 -51 -14 -70 l-13 -35 -1 51 c-1 68 23 204 54 301 37 118 127 262 235
376 51 53 95 97 98 97 4 0 31 -51 59 -113z m-4357 88 c26 -31 -13 -82 -44 -56
-16 14 -22 52 -9 64 11 12 40 8 53 -8z m3327 -140 c-1 -1 -15 -9 -30 -18 l-28
-18 6 28 c3 15 11 48 18 73 l11 45 13 -55 c6 -30 11 -55 10 -55z m17 -71 c-24
-30 -28 -48 -33 -127 l-6 -92 -22 65 c-42 125 -42 125 19 159 68 40 75 39 42
-5z m-4082 -58 c3 -37 1 -40 -39 -57 l-41 -17 23 34 c13 19 27 48 30 65 9 39
22 26 27 -25z m4874 -8 c-7 -39 -43 -110 -50 -100 -3 6 -2 13 4 17 5 3 10 11
10 18 0 6 -8 4 -17 -6 -15 -14 -15 -21 -5 -37 18 -30 14 -38 -8 -12 -18 22
-18 23 22 82 22 33 42 60 44 60 2 0 2 -10 0 -22z m-4907 -108 c19 0 51 -29 51
-46 0 -8 -9 -33 -19 -56 -11 -24 -24 -54 -30 -68 -10 -24 -11 -24 -9 10 3 95
-2 119 -33 155 l-31 35 29 -15 c15 -8 34 -15 42 -15z m4191 -90 l-18 -105 -1
78 c-1 58 4 87 16 108 9 15 18 27 19 26 1 -1 -7 -49 -16 -107z m-4631 64 c26
-33 12 -57 -28 -50 -14 2 -32 5 -38 5 -30 2 -4 71 27 71 10 0 28 -12 39 -26z
m5258 4 c-3 -8 -6 -5 -6 6 -1 11 2 17 5 13 3 -3 4 -12 1 -19z m-1937 6 l155
-7 0 -68 0 -69 -40 0 c-22 0 -51 -3 -64 -7 l-24 -6 5 -284 c4 -198 9 -288 17
-296 9 -9 -3 -17 -51 -33 -35 -12 -91 -34 -125 -47 -57 -23 -62 -24 -53 -7 6
11 10 147 10 343 l0 324 -70 7 -70 7 0 75 0 74 78 0 c42 0 147 -3 232 -6z
m1692 -51 c20 -18 24 -48 8 -58 -6 -4 -24 -4 -40 0 -34 7 -40 34 -14 59 19 20
23 20 46 -1z m-2145 -120 c-2 -21 -4 -4 -4 37 0 41 2 58 4 38 2 -21 2 -55 0
-75z m20 35 c-3 -7 -5 -2 -5 12 0 14 2 19 5 13 2 -7 2 -19 0 -25z m2111 -388
c38 -113 44 -140 30 -140 -5 0 -8 7 -4 15 3 8 2 15 -3 15 -5 0 -27 47 -50 105
-23 57 -50 121 -60 142 -10 21 -31 67 -47 103 -15 36 -34 70 -40 75 -7 6 -12
28 -11 50 1 36 7 26 77 -116 41 -85 90 -197 108 -249z m-4874 294 c-23 -63
-112 -280 -134 -329 -7 -15 -8 -13 -3 9 4 20 2 27 -5 22 -11 -7 -5 20 17 79
19 48 144 296 147 292 2 -2 -8 -35 -22 -73z m29 21 c-3 -9 -8 -14 -10 -11 -3
3 -2 9 2 15 9 16 15 13 8 -4z m-28 -85 c-22 -67 -29 -60 -9 9 9 29 18 50 21
47 3 -2 -3 -28 -12 -56z m-1125 -11 c87 -24 175 -68 283 -145 85 -60 131 -115
149 -178 15 -56 14 -194 -3 -234 -13 -32 -14 -29 -14 60 -1 62 -7 110 -18 145
-21 61 -41 83 -52 56 -6 -17 -7 -17 -19 -1 -11 15 -13 4 -11 -64 3 -130 -1
-130 -67 -11 -33 59 -66 121 -73 138 -23 51 -16 2 9 -73 14 -40 22 -72 18 -72
-4 0 -31 23 -60 50 -29 28 -56 50 -61 50 -15 0 -106 104 -165 188 -32 45 -66
87 -77 93 -10 5 -19 14 -19 20 0 14 81 4 180 -22z m7155 22 c3 -5 -3 -12 -14
-16 -11 -3 -55 -54 -98 -113 -56 -77 -103 -126 -159 -171 -43 -35 -92 -78
-107 -95 l-28 -31 14 35 c22 51 49 151 44 157 -3 2 -22 -28 -42 -69 -20 -40
-51 -102 -69 -138 l-34 -65 -7 68 c-4 37 -4 90 -1 118 5 33 3 49 -4 49 -6 0
-8 -4 -5 -10 3 -5 1 -10 -5 -10 -6 0 -17 -15 -25 -32 -7 -18 -23 -43 -34 -55
-18 -19 -21 -37 -23 -135 l-3 -113 -19 77 c-17 69 -18 87 -8 153 14 88 29 121
79 171 50 51 192 141 276 176 103 44 258 71 272 49z m-1374 -493 c50 -79 127
-192 171 -251 92 -122 93 -110 -12 -166 -93 -49 -306 -106 -895 -237 -509
-113 -702 -171 -927 -275 -136 -64 -233 -117 -313 -174 -72 -51 -206 -189
-235 -242 l-21 -38 5 115 c3 63 5 181 6 261 l0 145 37 44 c98 114 383 327 407
303 3 -3 6 6 6 20 0 15 -2 27 -5 27 -7 0 -96 -51 -150 -85 -57 -37 -73 -52
-202 -179 l-93 -91 0 38 c0 34 9 46 108 145 93 94 165 149 306 236 19 12 25
21 18 28 -17 17 -183 -86 -263 -162 -8 -8 -42 -40 -75 -71 -32 -31 -66 -69
-74 -84 l-15 -29 -3 28 c-2 16 0 40 4 55 4 14 6 30 5 34 -3 17 61 97 111 139
157 131 275 190 537 268 119 36 182 59 215 78 5 3 6 -2 3 -12 -4 -10 -3 -15 3
-11 6 3 10 12 10 20 0 8 8 11 23 8 16 -3 18 -2 8 5 -9 7 -10 11 -2 17 7 4 19
1 27 -6 12 -10 12 -14 2 -20 -10 -7 -9 -9 5 -9 19 0 23 15 7 25 -5 3 -10 9
-10 13 0 12 80 53 90 47 6 -3 10 -1 10 5 0 6 5 8 10 5 6 -3 10 -2 10 3 0 14
69 44 86 38 8 -3 12 -2 9 4 -7 12 32 33 50 26 7 -2 16 1 18 8 3 7 16 16 29 19
75 17 450 152 492 177 28 17 87 63 130 103 l79 74 84 -138 c45 -77 124 -203
174 -281z m-4244 339 c43 -40 98 -84 123 -99 25 -14 131 -54 235 -88 105 -35
208 -72 230 -83 22 -11 40 -19 40 -18 0 10 56 -22 64 -36 6 -11 11 -13 11 -5
0 7 5 10 10 7 6 -4 8 -10 6 -14 -3 -4 5 -7 17 -6 12 1 29 -5 37 -14 8 -9 22
-17 30 -19 8 -2 22 -10 31 -18 9 -8 19 -11 22 -7 4 3 7 1 7 -6 0 -7 6 -9 13
-6 6 4 3 -1 -7 -9 -22 -18 -40 -21 -31 -6 4 6 -1 7 -11 3 -13 -5 -15 -3 -9 8
7 11 5 11 -10 -1 -10 -8 -16 -10 -12 -3 7 11 -17 18 -146 42 -26 5 -50 5 -52
0 -8 -12 4 -16 121 -44 60 -14 117 -28 128 -31 14 -5 16 -3 11 7 -6 11 -5 12
6 2 19 -18 29 -16 23 5 -4 11 -3 13 3 5 7 -10 31 -19 65 -22 4 -1 13 -7 20
-13 7 -7 74 -28 148 -47 172 -43 292 -83 405 -136 181 -85 354 -241 325 -295
-16 -29 -12 -48 5 -26 8 11 15 15 15 9 0 -7 -4 -15 -10 -18 -5 -3 -10 -11 -10
-16 0 -6 5 -7 12 -3 6 4 8 3 4 -4 -3 -6 -2 -13 4 -17 5 -3 10 -14 10 -23 0
-10 -11 0 -27 23 -42 63 -102 123 -183 185 -78 59 -178 120 -198 120 -33 0 -3
-30 70 -70 141 -79 305 -235 326 -312 5 -20 8 -39 4 -42 -3 -3 -38 28 -79 68
-120 122 -284 246 -329 250 -39 3 -19 -22 49 -61 114 -66 165 -106 270 -210
l97 -96 0 -56 c0 -55 0 -55 -17 -31 -10 14 -18 34 -18 46 0 13 -4 26 -9 31 -5
5 -6 3 -2 -4 4 -8 2 -13 -6 -13 -9 0 -9 -3 2 -10 8 -5 11 -10 7 -10 -5 0 -25
17 -45 39 -20 21 -62 65 -93 98 -54 57 -184 153 -208 153 -27 0 0 -39 42 -62
12 -6 52 -33 88 -60 37 -26 69 -48 73 -48 8 0 84 -83 138 -153 l48 -62 0 -184
0 -184 -31 43 c-91 125 -246 244 -454 348 -273 136 -454 193 -988 313 -456
101 -615 140 -763 185 -133 40 -258 100 -247 118 4 6 35 47 69 91 97 127 309
450 423 647 9 16 19 28 23 28 4 0 42 -33 85 -73z m2361 -196 c4 -262 3 -270
-16 -280 -12 -6 -23 -11 -25 -11 -10 0 3 375 13 378 5 2 10 26 10 53 0 37 -4
49 -15 49 -8 0 -15 8 -15 18 0 19 26 62 38 62 4 0 9 -121 10 -269z m-2817 222
c-12 -20 -14 -14 -5 12 4 9 9 14 11 11 3 -2 0 -13 -6 -23z m1281 -10 c24 -22
23 -49 -4 -67 -32 -23 -55 -20 -74 9 -15 23 -15 27 0 50 19 29 51 32 78 8z
m-1309 -58 c-3 -9 -8 -14 -10 -11 -3 3 -2 9 2 15 9 16 15 13 8 -4z m-994 -174
c50 -35 91 -65 91 -67 0 -7 -106 43 -149 70 l-44 28 7 -28 c8 -32 75 -116 86
-109 5 3 21 -5 37 -18 15 -13 59 -45 98 -70 38 -26 62 -47 53 -47 -9 0 -20 5
-23 10 -4 6 -10 8 -15 5 -4 -3 -25 2 -46 11 -62 26 -25 -9 49 -46 46 -23 54
-30 35 -30 -14 0 -42 7 -61 15 -27 11 -43 12 -62 5 -31 -12 -60 5 -119 70 -57
64 -77 120 -83 235 l-5 100 30 -35 c16 -20 71 -64 121 -99z m6968 -115 c-34
-73 -85 -127 -159 -166 -38 -20 -58 -27 -49 -17 7 9 20 17 28 17 10 0 9 6 -6
21 -13 15 -26 19 -38 14 -21 -8 -74 -17 -56 -9 7 3 16 6 20 7 12 2 43 30 43
39 0 4 -21 -2 -47 -13 -48 -19 -48 -19 -23 0 14 11 55 36 91 56 74 41 107 71
149 135 39 59 38 65 -8 36 -35 -22 -112 -50 -112 -41 0 2 28 22 63 45 34 23
76 59 92 79 l30 38 3 -94 c2 -83 0 -101 -21 -147z m-6382 94 c9 -43 40 -77 83
-90 58 -19 58 -26 0 -47 -48 -18 -56 -25 -80 -74 -15 -30 -27 -46 -27 -35 -2
56 -75 126 -133 126 -30 0 -15 11 39 29 52 17 93 65 93 108 0 32 17 21 25 -17z
m5751 -69 c14 -11 41 -23 60 -27 53 -10 50 -21 -11 -40 -52 -17 -56 -20 -76
-70 l-22 -53 -23 50 c-19 39 -31 53 -61 65 -84 33 -81 31 -48 43 74 27 89 42
116 116 l11 30 14 -47 c8 -26 26 -56 40 -67z m424 -165 c0 -2 -7 -7 -16 -10
-8 -3 -12 -2 -9 4 6 10 25 14 25 6z m-3319 -25 c6 10 9 8 9 -9 0 -13 4 -20 10
-17 6 3 10 2 10 -4 0 -5 -4 -12 -8 -15 -10 -6 -42 30 -41 47 0 8 2 8 6 -2 5
-11 7 -11 14 0z m6 -103 c-3 -7 -5 -2 -5 12 0 14 2 19 5 13 2 -7 2 -19 0 -25z
m-3257 -30 c84 -25 135 -56 185 -109 22 -24 31 -36 20 -27 -11 9 -27 18 -35
20 -8 2 -34 15 -57 31 -57 37 -60 34 -20 -15 41 -52 61 -88 48 -88 -5 0 -12 8
-14 18 -4 15 -5 15 -6 0 0 -9 4 -20 9 -23 6 -3 10 -11 10 -18 0 -6 -28 16 -62
49 -35 33 -78 73 -96 87 -61 49 -56 28 9 -38 35 -35 65 -74 65 -85 1 -19 -10
-19 -12 1 -3 22 -5 23 -13 10 -13 -20 -105 75 -154 157 l-37 63 48 -7 c26 -4
76 -15 112 -26z m6624 20 c-43 -74 -110 -161 -145 -189 -44 -36 -108 -73 -114
-67 -2 2 30 39 70 83 41 44 75 83 75 88 0 17 -19 3 -92 -66 -68 -64 -78 -70
-78 -49 0 32 16 60 58 105 56 58 33 49 -55 -23 -8 -6 -14 -6 -18 1 -5 7 -11 6
-21 -2 -8 -6 -14 -8 -14 -5 0 12 61 60 94 75 35 15 201 59 229 60 12 1 16 -3
11 -11z m-3264 -43 c0 0 -15 -16 -34 -34 -24 -24 -36 -29 -41 -20 -5 7 -4 10
2 6 11 -7 57 36 48 45 -3 2 2 5 10 5 8 0 15 -1 15 -2z m-3665 -65 c95 -46 265
-173 251 -188 -3 -3 -14 1 -23 9 -20 17 -117 69 -127 69 -9 0 78 -75 111 -97
48 -32 12 -23 -92 22 -59 26 -109 44 -112 41 -4 -3 -1 -6 6 -6 7 0 10 -3 8 -7
-3 -5 1 -13 8 -20 10 -9 14 -10 17 -1 3 9 6 9 11 1 4 -6 0 -13 -8 -17 -24 -9
-70 39 -136 140 -34 52 -69 99 -78 105 -11 7 -4 8 24 3 22 -3 85 -27 140 -54z
m7223 33 c-14 -16 -45 -59 -70 -98 -25 -38 -58 -81 -74 -95 -25 -22 -26 -22
-10 -2 11 12 16 22 13 22 -14 0 -106 -34 -166 -62 -35 -16 -66 -27 -68 -24 -3
2 29 30 71 61 42 31 76 58 76 60 0 5 -168 -91 -190 -108 -8 -7 -4 3 9 21 58
82 281 229 371 245 63 11 66 9 38 -20z m-3647 -44 c6 -3 3 -11 -6 -19 -13 -11
-15 -7 -14 31 1 28 3 35 6 19 3 -14 9 -28 14 -31z m2651 -136 c111 -133 106
-124 69 -117 -17 4 -37 2 -43 -3 -7 -6 -25 -13 -40 -17 -14 -3 -34 -9 -45 -12
-15 -5 -15 -4 -3 5 13 9 13 11 -2 11 -10 0 -18 -4 -18 -9 0 -5 -15 -12 -34
-15 -19 -4 -39 -13 -46 -21 -7 -8 -19 -15 -27 -15 -8 0 -12 -4 -8 -10 6 -9
-92 -43 -117 -39 -27 3 -49 -1 -44 -10 6 -9 -82 -26 -91 -18 -3 3 -23 -1 -45
-9 -45 -16 -74 -18 -43 -3 16 7 14 8 -10 3 -16 -3 -32 -9 -35 -12 -3 -4 -14
-7 -25 -7 -19 1 -115 -18 -342 -66 -57 -12 -103 -26 -103 -30 0 -4 -16 -11
-35 -15 -19 -3 -35 -11 -36 -18 0 -6 -4 -2 -9 9 -5 11 -9 15 -9 8 -1 -7 -8
-10 -16 -7 -9 4 -15 0 -15 -9 0 -14 -43 -26 -105 -28 -25 0 -26 -2 -10 -8 16
-7 14 -9 -15 -14 -18 -4 -31 -9 -29 -11 2 -3 47 4 99 15 52 10 151 28 220 38
175 28 490 96 730 159 63 17 171 43 240 57 143 31 164 40 156 63 -4 9 36 -28
89 -82 52 -55 95 -104 95 -110 0 -5 -6 -2 -13 8 -12 16 -19 16 -81 5 -60 -11
-66 -14 -50 -26 22 -16 13 -17 -18 -2 -19 8 -58 2 -183 -26 -88 -20 -175 -39
-192 -42 -18 -3 -33 -10 -33 -15 0 -5 -8 -7 -17 -4 -10 2 -49 -4 -88 -15 -58
-16 -62 -18 -25 -14 36 4 41 3 26 -6 -10 -6 -34 -9 -54 -5 -40 6 -242 -40
-242 -56 0 -5 -4 -6 -10 -3 -23 14 -663 -153 -969 -254 -113 -37 -412 -151
-448 -170 -47 -25 -176 -81 -180 -78 -8 9 213 120 337 170 361 145 671 231
1720 478 446 105 473 115 419 152 -14 11 -30 12 -57 6 -61 -13 -190 -20 -167
-8 16 7 14 8 -13 4 -98 -15 -162 -30 -162 -38 0 -5 -13 -6 -30 -2 -18 4 -30 2
-30 -3 0 -6 -10 -8 -22 -5 -18 4 -20 3 -8 -6 12 -8 9 -10 -15 -9 -36 1 -229
-42 -233 -52 -2 -4 -12 -5 -24 -2 -12 3 -19 1 -16 -4 4 -5 -8 -9 -25 -9 -18
-1 -97 -15 -177 -33 -80 -17 -179 -36 -220 -42 -135 -20 -173 -27 -325 -59
-82 -18 -158 -37 -167 -42 -10 -5 -41 -10 -70 -10 -47 -1 -49 -2 -18 -8 l35
-6 -55 -14 c-30 -7 -67 -14 -82 -14 -14 -1 -25 -4 -22 -6 8 -8 -50 -31 -80
-31 -24 0 -27 -3 -16 -10 13 -8 12 -10 -3 -10 -9 0 -25 -4 -35 -10 -45 -25
-146 -61 -159 -56 -8 3 -12 2 -9 -3 3 -4 -24 -18 -60 -30 -36 -12 -75 -28 -88
-36 -12 -8 -26 -12 -29 -8 -4 3 -7 2 -7 -4 0 -5 -7 -10 -15 -10 -13 0 -13 3 1
18 9 10 21 16 25 13 5 -3 9 -1 9 4 0 9 114 64 203 97 26 10 45 20 42 23 -11
12 -315 -130 -335 -156 -14 -19 -40 -34 -40 -23 0 19 121 101 234 158 292 147
540 224 1151 358 404 89 529 122 750 197 83 28 151 52 153 53 1 1 -7 14 -19
28 -23 30 -41 35 -37 11 2 -10 -5 -18 -15 -20 -11 -1 -22 -6 -25 -10 -4 -4 1
-4 11 -1 9 4 17 3 17 -2 0 -5 -19 -12 -42 -15 -24 -4 -61 -11 -83 -16 -37 -7
-38 -8 -10 -10 17 -1 -22 -12 -85 -25 -63 -12 -127 -27 -141 -33 -15 -6 -132
-34 -260 -62 -129 -28 -250 -54 -269 -59 -19 -5 -55 -12 -80 -16 -67 -11 -120
-22 -265 -57 -104 -25 -435 -132 -546 -176 -81 -33 -255 -116 -274 -132 -7 -6
-15 -7 -18 -3 -4 3 -7 2 -7 -4 0 -8 -94 -66 -110 -68 -3 0 -20 -14 -38 -31
-18 -17 -52 -41 -75 -54 l-42 -23 30 30 c17 16 33 28 38 26 7 -4 10 10 9 32
-2 14 76 67 88 60 6 -4 7 1 3 12 -3 10 -3 15 1 12 4 -4 18 4 32 16 17 15 34
22 49 19 20 -3 23 -1 18 13 -5 13 -2 15 11 10 10 -4 15 -3 11 3 -3 6 -1 10 6
10 7 0 10 3 6 6 -9 9 -128 -58 -211 -119 -100 -74 -108 -77 -51 -18 139 146
452 299 829 407 67 19 321 77 566 130 484 103 772 174 829 204 20 10 47 35 60
54 13 20 25 36 27 36 1 0 36 -39 76 -87z m-5260 38 c25 -27 55 -45 100 -60 97
-32 441 -113 768 -181 471 -98 721 -167 954 -264 218 -91 402 -208 482 -306
25 -31 25 -32 4 -14 -42 36 -153 107 -167 107 -7 0 -13 4 -13 9 0 4 -5 8 -12
8 -6 0 -20 8 -31 18 -19 16 -20 16 -14 0 5 -15 4 -16 -13 -6 -14 9 -16 15 -7
21 7 5 1 6 -15 3 -27 -6 -81 11 -73 23 2 4 -5 8 -16 8 -18 2 -19 0 -8 -14 8
-8 -4 -4 -25 11 -21 14 -48 26 -60 26 -17 0 -18 2 -6 10 13 8 13 10 1 10 -11
0 -10 4 5 16 10 8 14 13 7 9 -7 -3 -31 4 -53 15 -23 12 -39 16 -38 9 2 -6 -2
-13 -9 -16 -6 -2 -10 4 -9 14 4 25 -41 46 -83 39 -30 -5 -31 -4 -16 8 17 12
16 13 -6 19 -13 3 -25 4 -28 2 -2 -3 1 -5 7 -5 7 0 12 -5 12 -11 0 -7 -10 -5
-25 5 -24 16 -25 16 -26 -6 l-2 -23 -4 23 c-2 12 -9 22 -14 22 -6 0 -8 -4 -5
-9 6 -9 -54 -25 -62 -16 -3 3 3 5 14 6 17 0 16 1 -3 9 -13 5 -23 15 -23 22 0
9 3 9 10 -2 7 -12 9 -10 7 7 0 12 -3 20 -6 18 -2 -3 -11 1 -20 8 -14 11 -14
10 -2 -5 9 -13 10 -18 2 -18 -7 0 -9 -5 -5 -11 7 -12 -27 -4 -56 12 -13 7 -13
8 0 9 13 0 13 1 0 11 -12 8 -10 10 10 5 24 -5 24 -4 6 9 -11 8 -40 16 -65 17
-25 0 -50 2 -56 3 -5 2 -18 3 -28 4 -12 1 -16 6 -11 14 4 6 4 9 -1 5 -4 -4
-20 -1 -35 7 -23 12 -29 12 -33 1 -3 -7 0 -19 6 -25 14 -14 0 -13 -43 5 -19 8
-25 12 -13 10 12 -2 27 2 34 10 6 8 10 15 8 15 -6 2 -40 8 -64 12 -11 2 -25 6
-32 10 -6 4 -29 9 -52 11 -23 2 -44 6 -48 10 -11 10 -23 7 -23 -8 0 -7 15 -18
33 -24 23 -9 25 -11 7 -8 -14 2 -34 7 -44 11 -15 6 -17 5 -11 -5 6 -10 2 -12
-16 -7 -13 4 -30 7 -37 7 -7 0 -11 4 -8 8 2 4 -7 8 -21 7 -14 0 -28 6 -30 13
-3 6 0 12 7 12 6 0 8 -4 5 -10 -3 -5 -2 -10 4 -10 5 0 11 5 13 11 2 7 12 7 31
0 16 -6 35 -11 43 -11 29 0 -11 29 -48 35 -18 2 -57 11 -86 19 -30 9 -71 17
-92 20 -22 2 -44 7 -50 11 -6 4 -32 7 -58 7 -25 0 -56 5 -67 11 -11 6 -24 10
-29 9 -5 -2 -23 2 -40 8 -56 21 -137 38 -157 33 -10 -3 -19 0 -19 6 0 6 -7 11
-15 11 -8 0 -12 -6 -9 -13 5 -13 17 -17 58 -18 13 0 16 -3 9 -10 -7 -7 -22 -7
-47 -1 -21 6 -34 7 -31 1 8 -12 6 -12 -92 13 -63 15 -81 23 -67 29 17 6 16 8
-11 19 -48 19 -82 23 -100 12 -27 -15 -57 -3 -53 22 2 17 9 21 33 19 l30 -2
-29 9 c-30 10 -53 2 -75 -24 -16 -19 -6 -24 141 -76 159 -55 333 -102 607
-161 283 -61 654 -150 771 -185 304 -91 592 -225 746 -348 74 -59 86 -83 23
-46 -27 17 -52 30 -55 30 -10 0 -57 40 -48 40 5 1 -21 16 -59 35 -37 19 -75
32 -85 29 -12 -4 -13 -3 -4 3 9 7 7 12 -10 20 -101 48 -161 73 -173 73 -8 0
-17 5 -20 10 -3 6 -19 10 -36 10 -16 0 -29 4 -29 9 0 5 -24 15 -52 21 -29 7
-69 19 -88 28 -43 19 -38 17 -83 26 -20 5 -39 12 -42 16 -3 5 -36 12 -73 16
-52 6 -61 9 -42 15 14 4 21 8 15 8 -5 1 -20 4 -33 7 -17 5 -21 3 -17 -8 4 -10
-3 -14 -29 -14 -19 0 -32 4 -30 8 3 4 -4 8 -16 8 -12 0 -28 7 -36 15 -18 18
-11 19 19 4 21 -11 21 -11 5 7 -11 11 -32 18 -52 18 -19 0 -32 4 -30 8 3 4 -2
8 -11 8 -9 0 -14 -4 -11 -9 4 -5 -3 -7 -14 -4 -11 3 -17 9 -14 14 7 11 -42 23
-57 13 -7 -4 -10 -3 -6 3 6 10 -151 52 -208 56 -16 1 -32 5 -35 9 -6 7 -92 21
-137 22 -13 1 -23 4 -23 7 0 9 -185 39 -252 41 -42 2 -54 6 -47 14 6 7 6 15 1
18 -12 7 -52 -4 -52 -15 0 -5 -19 -9 -42 -8 -31 0 -38 3 -23 8 18 7 18 8 -5
13 -14 3 -34 9 -44 13 -14 6 -17 5 -12 -3 5 -9 1 -9 -19 0 l-27 12 26 9 c19 6
30 4 42 -7 17 -17 39 -22 29 -7 -3 5 3 11 12 13 10 3 -2 8 -26 12 -25 5 -69
17 -98 27 -30 10 -69 16 -90 14 -28 -4 -32 -3 -13 3 21 7 17 9 -32 21 -30 8
-70 12 -87 9 l-31 -4 18 27 c21 34 145 179 152 179 3 0 21 -18 42 -39z m6058
-86 c-14 -8 -32 -14 -40 -14 -8 0 -1 6 15 14 40 18 57 18 25 0z m-6814 -132
c52 -30 94 -57 94 -59 0 -1 -18 3 -41 11 -56 20 -149 77 -179 111 l-25 28 29
-18 c16 -10 71 -43 122 -73z m807 80 c-7 -2 -21 -2 -30 0 -10 3 -4 5 12 5 17
0 24 -2 18 -5z m5943 -42 c-9 -10 -44 -33 -76 -50 -63 -34 -151 -68 -135 -52
10 9 216 121 224 121 2 0 -4 -9 -13 -19z m-6211 -35 c16 -8 80 -27 144 -42 64
-15 147 -35 186 -45 60 -15 75 -16 107 -4 21 7 38 9 38 5 0 -10 -25 -20 -53
-21 -41 -2 66 -29 293 -73 337 -66 562 -108 586 -110 12 0 20 -5 16 -10 -3 -5
3 -6 14 -2 14 5 16 4 8 -4 -8 -8 -47 -4 -140 14 -115 22 -520 98 -584 109 -14
3 -45 10 -70 17 -25 7 -58 12 -75 12 -23 -1 -26 2 -15 9 12 8 10 10 -8 6 -13
-3 -20 -1 -16 5 4 7 -6 8 -27 4 -23 -4 -28 -3 -14 3 23 9 -58 26 -200 42 -135
15 -170 16 -175 8 -3 -4 -23 -1 -45 7 -35 12 -42 11 -57 -3 -25 -22 -22 -38 8
-51 24 -12 596 -154 809 -202 552 -124 1045 -263 1280 -360 124 -52 300 -141
344 -174 47 -35 35 -33 -51 10 -347 169 -634 265 -1278 425 -791 196 -901 222
-1085 254 -49 9 -96 18 -103 20 -9 3 13 34 60 85 40 44 74 80 74 80 1 0 14 -6
29 -14z m692 -32 c-3 -3 -12 -4 -19 -1 -8 3 -5 6 6 6 11 1 17 -2 13 -5z m50
-10 c-3 -3 -12 -4 -19 -1 -8 3 -5 6 6 6 11 1 17 -2 13 -5z m50 -10 c-3 -3 -12
-4 -19 -1 -8 3 -5 6 6 6 11 1 17 -2 13 -5z m90 -20 c-3 -3 -12 -4 -19 -1 -8 3
-5 6 6 6 11 1 17 -2 13 -5z m101 -18 c8 -9 -62 5 -72 15 -5 4 8 4 29 -1 20 -4
39 -11 43 -14z m72 8 c0 -7 -7 -15 -16 -18 -23 -9 -26 -8 -18 6 5 7 2 9 -7 6
-8 -3 -19 0 -25 6 -8 9 -1 12 28 11 21 0 38 -5 38 -11z m207 -30 c-3 -3 -12
-4 -19 -1 -8 3 -5 6 6 6 11 1 17 -2 13 -5z m45 -11 c-6 -2 -10 -9 -6 -14 3 -5
1 -9 -5 -9 -5 0 -12 4 -15 9 -6 9 10 19 29 19 6 0 4 -2 -3 -5z m173 -74 c-4
-5 -12 -9 -18 -8 -8 0 -8 2 1 6 10 4 9 9 -5 20 -17 13 -16 13 5 3 12 -6 20
-15 17 -21z m75 -19 c-8 -5 -22 -9 -30 -9 -10 0 -8 3 5 9 27 12 43 12 25 0z
m57 -6 c-3 -3 -12 -4 -19 -1 -8 3 -5 6 6 6 11 1 17 -2 13 -5z m3833 -14 c0 -9
-8 -12 -75 -24 l-30 -6 35 19 c39 21 70 26 70 11z m79 6 c-11 -9 -69 -14 -69
-6 0 6 17 10 37 10 20 0 34 -2 32 -4z m-5611 -62 c136 -25 310 -57 387 -70
199 -36 224 -42 195 -43 -24 -1 -99 11 -390 59 -69 12 -133 19 -143 16 -9 -2
-15 -1 -12 4 3 4 -32 13 -78 20 -106 15 -209 39 -221 51 -15 14 -5 12 262 -37z
m6012 37 c0 -6 -20 -13 -45 -17 -25 -3 -43 -9 -41 -13 2 -3 -25 -7 -61 -7 -36
-1 -68 -5 -72 -10 -3 -5 -28 -10 -55 -12 -27 -1 -54 -7 -61 -12 -7 -5 -14 -8
-17 -5 -3 3 -74 -6 -159 -20 -85 -14 -194 -32 -243 -40 -49 -8 -106 -14 -125
-14 -30 1 -26 3 19 10 30 5 192 34 360 64 477 86 500 90 500 76z m-4065 -47
c15 -10 25 -12 25 -5 0 15 43 14 58 -1 15 -15 15 -28 1 -28 -5 0 -8 4 -4 9 3
5 -4 13 -16 16 -12 4 -24 3 -28 -3 -3 -5 -19 -10 -34 -10 -15 0 -25 3 -23 6 3
3 1 11 -5 19 -15 18 -4 16 26 -3z m3322 0 c-3 -3 -12 -4 -19 -1 -8 3 -5 6 6 6
11 1 17 -2 13 -5z m-3261 -29 c-3 -8 0 -15 6 -15 6 0 9 -2 6 -5 -3 -3 -16 -1
-29 4 -18 7 -20 10 -6 10 10 1 15 6 12 11 -3 6 -1 10 5 10 7 0 10 -7 6 -15z
m-389 -11 c-3 -3 -12 -4 -19 -1 -8 3 -5 6 6 6 11 1 17 -2 13 -5z m513 -39 c0
-2 -6 -5 -13 -8 -8 -3 -14 1 -14 8 0 7 6 11 14 8 7 -3 13 -6 13 -8z m-1452
-32 c-10 -2 -28 -2 -40 0 -13 2 -5 4 17 4 22 1 32 -1 23 -4z m4399 1 c-3 -3
-12 -4 -19 -1 -8 3 -5 6 6 6 11 1 17 -2 13 -5z m-5468 -42 c79 -63 119 -159
130 -307 4 -55 7 -101 5 -103 -1 -2 -16 9 -33 25 -17 15 -57 79 -89 141 -33
63 -66 122 -75 132 -8 10 -21 28 -27 40 -6 12 -14 20 -16 17 -8 -8 56 -170 92
-235 l36 -63 -30 15 c-16 8 -43 32 -58 53 -30 39 -69 58 -58 28 4 -9 12 -14
18 -12 7 3 12 -3 12 -13 0 -26 -9 -18 -76 69 -62 82 -126 141 -154 141 -40 0
-7 21 97 64 130 53 168 55 226 8z m5379 31 c-10 -2 -26 -2 -35 0 -10 3 -2 5
17 5 19 0 27 -2 18 -5z m1387 -44 c115 -45 113 -41 40 -79 -16 -8 -49 -40 -72
-70 -67 -86 -144 -170 -156 -170 -6 0 0 12 14 28 56 62 60 74 9 26 -58 -55
-121 -96 -89 -58 34 39 136 270 124 282 -3 3 -5 0 -5 -6 0 -7 -5 -11 -12 -9
-7 1 -44 -63 -84 -142 -43 -85 -86 -156 -104 -173 -18 -16 -34 -27 -36 -25 -9
8 17 216 31 259 18 52 82 130 130 159 45 28 92 23 210 -22z m-6415 -9 c0 -11
-9 -24 -19 -30 -43 -22 -77 23 -41 52 26 21 60 9 60 -22z m5893 19 c16 -26 1
-49 -33 -49 -16 0 -30 2 -30 4 0 2 -3 11 -6 19 -7 18 23 49 44 45 8 -2 19 -10
25 -19z m-3569 -8 c-2 -2 4 -10 14 -18 11 -9 5 -8 -18 3 -45 21 -46 22 -16 20
13 0 23 -3 20 -5z m-1953 -55 c46 -13 113 -32 148 -41 164 -42 264 -131 306
-272 10 -31 10 -41 2 -35 -7 5 -46 22 -87 37 -41 16 -143 61 -226 102 l-151
73 -40 80 c-22 44 -39 80 -37 80 1 0 39 -11 85 -24z m2043 -1 c24 -14 46 -22
51 -17 4 4 4 1 0 -7 -6 -10 -4 -13 7 -9 8 4 21 2 29 -3 11 -7 11 -9 1 -9 -7 0
-10 -5 -7 -10 5 -9 -119 62 -134 76 -13 12 16 0 53 -21z m3111 -11 c-14 -20
-25 -41 -25 -46 0 -31 -35 -77 -73 -95 -90 -44 -414 -193 -419 -193 -11 0 12
82 37 131 34 66 120 133 205 159 93 29 273 79 287 79 7 1 2 -14 -12 -35z
m-3315 6 c8 -5 11 -10 5 -10 -5 0 -17 5 -25 10 -8 5 -10 10 -5 10 6 0 17 -5
25 -10z m-2919 -15 c48 -17 105 -67 149 -131 l28 -40 -97 32 c-54 18 -146 40
-205 50 -59 10 -103 21 -99 25 17 16 145 79 162 79 10 0 38 -7 62 -15z m7384
-14 c33 -16 69 -35 79 -44 18 -13 14 -15 -47 -21 -87 -10 -243 -49 -297 -75
-24 -11 -45 -19 -47 -18 -6 6 56 92 90 125 36 35 94 61 137 62 14 0 52 -13 85
-29z m-4405 -2 c0 -6 -4 -7 -10 -4 -5 3 -10 11 -10 16 0 6 5 7 10 4 6 -3 10
-11 10 -16z m-1269 -30 c117 -29 220 -80 263 -130 46 -54 66 -115 73 -219 l6
-85 -37 33 c-20 17 -41 33 -46 33 -6 1 -16 2 -22 3 -7 0 -13 7 -13 14 0 7 -15
21 -33 32 -19 12 -31 15 -27 8 3 -7 -37 32 -89 87 -53 55 -96 95 -96 89 0 -14
90 -133 169 -223 30 -35 46 -59 34 -53 -31 17 -38 15 -22 -5 13 -17 13 -17 -7
0 -11 9 -26 17 -32 17 -15 0 -88 45 -97 60 -3 5 -12 10 -18 10 -11 0 16 -27
73 -71 l25 -20 -35 17 c-19 9 -58 41 -87 71 -68 72 -91 132 -96 257 -4 112
-13 106 114 75z m3939 -68 c0 -136 -38 -216 -142 -302 -29 -24 -45 -34 -35
-23 23 28 22 41 -3 19 -11 -10 -20 -15 -20 -11 0 4 -7 0 -16 -9 -9 -9 -22 -14
-30 -11 -7 3 -18 -2 -24 -9 -13 -15 -30 -11 -30 6 0 6 22 34 48 62 69 74 107
126 125 170 9 20 21 37 26 37 6 0 11 5 11 12 0 7 -33 -21 -74 -62 -41 -41 -73
-77 -71 -80 2 -4 -14 -24 -35 -45 -22 -22 -40 -36 -40 -32 0 4 16 22 35 39 20
17 34 33 31 35 -5 6 -87 -58 -124 -97 -14 -14 -21 -18 -16 -10 8 14 7 14 -6 0
-8 -9 -23 -19 -32 -23 -10 -3 -18 -13 -18 -21 0 -8 -4 -17 -10 -21 -21 -13 13
213 40 266 27 53 83 104 148 136 59 29 178 61 230 62 l32 1 0 -89z m-4145 44
c0 -21 -5 -31 -19 -33 -26 -5 -40 12 -32 43 5 20 12 26 29 23 17 -2 22 -10 22
-33z m1780 25 c3 -6 -1 -7 -9 -4 -18 7 -21 14 -7 14 6 0 13 -4 16 -10z m2510
-7 c9 -25 -32 -58 -51 -42 -17 14 -18 31 -2 47 17 17 45 15 53 -5z m-5052 -95
c39 -39 69 -81 93 -133 32 -66 37 -87 40 -168 3 -60 1 -83 -5 -66 -14 42 -31
70 -40 64 -5 -2 -16 7 -25 20 -9 14 -21 23 -26 20 -9 -5 -67 100 -97 175 l-13
35 6 -50 c12 -98 12 -106 -3 -100 -7 3 -20 8 -28 11 -17 7 -13 -29 7 -54 10
-12 10 -14 0 -8 -7 4 -25 31 -39 59 -23 44 -28 64 -27 132 0 53 5 93 17 118
l17 38 32 -18 c18 -10 59 -44 91 -75z m5908 45 c19 -69 15 -159 -10 -215 -12
-26 -26 -50 -32 -54 -8 -4 -8 0 0 14 6 11 11 24 11 29 -1 4 -8 -4 -16 -20 -8
-15 -12 -33 -8 -39 4 -7 3 -8 -4 -4 -7 4 -12 3 -12 -1 0 -5 -6 -17 -13 -27
-11 -15 -13 -12 -11 26 1 24 5 54 9 67 6 18 5 22 -4 17 -12 -8 -8 22 10 72 20
54 5 30 -44 -69 -29 -58 -69 -122 -89 -144 -36 -36 -42 -50 -39 -85 2 -12 0
-12 -7 -2 -5 8 -13 14 -18 15 -11 2 -6 94 7 156 23 107 99 215 194 277 27 18
53 33 56 33 4 1 12 -20 20 -46z m-5371 -179 c58 -25 154 -66 214 -91 97 -39
216 -98 216 -108 0 -5 -22 1 -55 14 -40 17 -54 17 -237 7 -181 -9 -224 -1
-293 59 l-40 35 60 -27 c49 -22 78 -28 155 -30 l95 -3 -32 17 c-108 61 -157
94 -228 156 -44 39 -82 74 -83 79 -2 5 25 -7 60 -26 34 -19 110 -56 168 -82z
m981 73 c98 -41 135 -65 187 -122 61 -67 92 -151 92 -251 0 -61 -13 -84 -27
-48 -3 8 -12 13 -20 10 -8 -3 -11 -1 -8 5 4 5 -1 22 -11 37 -27 42 -136 152
-145 146 -4 -2 -13 4 -19 15 -13 25 -90 115 -90 105 0 -12 41 -76 115 -179 72
-100 124 -180 91 -141 -9 11 -16 16 -16 12 0 -4 -19 6 -42 23 -47 34 -67 40
-47 14 7 -10 -10 4 -39 32 -29 27 -52 44 -52 38 0 -7 4 -14 10 -18 5 -3 19
-20 31 -38 21 -30 20 -30 -20 8 -73 69 -111 176 -111 312 l0 81 33 -9 c19 -5
58 -19 88 -32z m2837 -71 c-5 -100 -9 -122 -35 -178 -26 -55 -108 -152 -117
-138 -2 3 -14 -4 -27 -15 -13 -11 -2 2 24 28 48 47 59 80 14 40 -41 -37 -87
-65 -112 -67 -23 -3 -24 -2 -9 26 8 16 19 26 23 23 5 -2 15 3 22 12 12 14 12
16 0 9 -9 -6 -12 -5 -9 5 3 8 11 13 17 11 7 -1 10 1 7 6 -7 12 51 107 66 107
7 0 14 10 14 23 1 12 9 32 19 45 10 12 -4 0 -30 -28 -27 -27 -61 -68 -77 -89
-15 -21 -28 -36 -28 -31 0 4 -7 2 -15 -5 -8 -7 -15 -18 -15 -24 0 -6 5 -4 10
4 5 8 10 11 10 5 0 -14 -39 -63 -40 -49 0 5 5 15 12 22 9 9 9 12 1 12 -13 0
-53 -52 -53 -69 0 -6 -8 -11 -19 -11 -10 0 -21 -9 -24 -20 -3 -11 -11 -20 -17
-20 -20 0 -6 145 21 215 27 73 100 150 179 188 43 21 167 71 189 76 2 1 2 -50
-1 -113z m-5166 83 c37 -7 64 -17 61 -22 -3 -5 3 -7 13 -4 11 4 57 -7 104 -23
47 -16 79 -29 72 -29 -7 -1 -11 -5 -8 -10 6 -9 -117 12 -172 30 -51 17 -48 6
10 -33 79 -52 105 -64 208 -93 51 -15 109 -34 129 -43 20 -9 40 -15 46 -13 5
1 7 -1 2 -5 -4 -4 -38 -9 -75 -11 -94 -4 -100 -6 -95 -19 5 -14 66 -44 126
-63 53 -18 46 -24 -20 -15 -134 16 -213 66 -395 249 -65 65 -118 120 -118 122
0 2 10 1 23 -1 12 -3 52 -10 89 -17z m6258 17 c0 -14 -112 -109 -162 -138 -68
-38 -119 -78 -100 -78 7 0 27 7 44 16 16 9 27 11 23 4 -11 -18 -55 -32 -125
-40 l-65 -7 86 -2 c101 -1 173 11 230 38 38 19 40 19 25 2 -9 -10 -40 -31 -69
-47 -50 -28 -56 -29 -182 -27 -71 1 -159 6 -195 11 -35 5 -77 6 -92 1 -82 -23
19 26 237 116 72 29 177 76 235 103 120 58 110 53 110 48z m1122 -114 c-130
-132 -174 -168 -247 -204 -63 -32 -107 -45 -169 -51 -55 -5 -43 8 15 18 40 7
119 68 106 81 -4 4 -13 2 -19 -4 -13 -13 -32 -16 -24 -4 2 4 -18 8 -45 8 -92
1 -78 19 43 54 141 41 165 51 244 102 66 42 88 71 33 42 -17 -8 -28 -11 -25
-5 10 15 -7 14 -23 -1 -10 -11 -11 -10 -6 5 4 9 14 17 22 17 8 0 12 4 8 9 -3
5 0 13 6 17 8 4 9 3 5 -4 -4 -7 -2 -12 3 -12 6 0 11 4 11 9 0 7 64 23 140 35
14 2 28 4 32 5 3 0 -46 -52 -110 -117z m-4526 -152 c91 -89 145 -217 143 -340
-1 -64 -16 -142 -18 -94 -1 12 -28 61 -60 111 -38 57 -69 120 -86 174 -40 123
-63 138 -29 19 8 -30 18 -104 22 -163 7 -101 6 -107 -9 -88 -31 38 -28 9 3
-38 l31 -46 -42 40 c-24 22 -55 63 -69 90 -24 45 -27 60 -27 160 1 86 6 126
23 183 23 71 23 72 45 57 12 -8 45 -38 73 -65z m959 70 c235 -33 372 -160 324
-299 -18 -52 -189 -145 -292 -159 -28 -3 -35 -8 -25 -14 8 -6 -1 -7 -25 -3
-22 3 -37 3 -34 -2 3 -4 -1 -14 -9 -20 -7 -7 -15 -9 -19 -4 -3 5 1 12 7 14 7
3 -10 6 -38 6 -78 1 -205 28 -284 60 -123 51 -170 100 -170 182 0 164 273 280
565 239z m841 -67 c11 -46 18 -117 19 -173 0 -87 -3 -101 -32 -160 -18 -36
-51 -83 -74 -105 -38 -36 -40 -37 -21 -9 12 17 18 35 14 39 -4 5 -2 5 5 1 13
-7 39 31 29 42 -3 3 -6 0 -6 -6 0 -7 -10 -10 -22 -8 -13 2 -22 8 -22 12 1 5 7
33 13 62 6 30 9 58 6 62 -3 5 1 35 9 67 8 32 17 78 20 103 5 42 4 40 -19 -25
-52 -145 -97 -256 -103 -251 -3 3 -11 -2 -18 -12 -12 -16 -13 -15 -14 8 -1 23
-2 23 -10 5 -5 -11 -9 -37 -9 -57 -1 -46 -16 -50 -25 -7 -28 141 29 305 147
422 37 37 74 67 81 67 9 0 21 -28 32 -77z m744 43 c0 -2 -8 -10 -17 -17 -16
-13 -17 -12 -4 4 13 16 21 21 21 13z m-2970 -68 c15 -21 17 -28 6 -19 -16 13
-41 51 -33 51 2 0 14 -15 27 -32z m-670 -61 l35 -16 -35 0 c-66 2 -73 0 -66
-17 5 -14 4 -15 -9 -4 -8 7 -15 8 -15 3 0 -5 -19 -16 -42 -23 -72 -22 -66 -30
22 -30 80 0 83 -1 66 -19 -21 -23 -70 -20 -245 15 -68 14 -130 23 -138 20 -7
-3 -13 -2 -13 2 0 9 83 45 169 73 70 24 217 21 271 -4z m720 -2 c13 -14 21
-25 18 -25 -2 0 -15 11 -28 25 -13 14 -21 25 -18 25 2 0 15 -11 28 -25z m3380
15 c25 -6 82 -24 128 -42 89 -33 92 -48 12 -48 -25 0 -82 -9 -128 -20 -96 -23
-122 -25 -122 -8 0 6 -7 3 -15 -8 -10 -14 -14 -15 -15 -4 0 10 -3 11 -11 3
-14 -14 -49 -5 -49 13 0 7 -6 11 -12 9 -7 -3 -26 -1 -43 5 l-30 9 35 -1 c19
-1 71 0 115 1 l80 3 -45 15 c-25 9 -47 19 -50 23 -13 18 -55 31 -81 26 -46 -9
-33 12 14 22 57 13 162 14 217 2z m-3607 -64 c75 -24 110 -43 149 -75 36 -32
46 -46 37 -52 -7 -4 -18 -5 -24 -1 -16 10 -36 11 -30 1 3 -5 -22 -6 -57 -4
-35 3 -88 1 -118 -5 -30 -5 -68 -12 -84 -15 -52 -8 -38 -12 71 -19 60 -4 126
-11 148 -15 39 -8 38 -9 -21 -10 -128 -2 -278 -37 -457 -105 -37 -14 -86 -27
-110 -27 -39 -1 -40 -2 -12 -9 71 -18 180 -11 289 20 60 17 117 28 128 24 15
-4 18 -3 13 7 -6 9 -3 11 9 6 10 -4 23 -7 29 -7 21 -1 -20 -20 -117 -55 -153
-55 -253 -61 -390 -21 l-55 16 117 115 c85 84 135 124 182 148 60 30 72 32
162 32 54 0 98 1 98 2 0 0 -19 13 -43 26 -24 14 -49 33 -57 41 -21 26 32 19
143 -18z m3025 22 c-3 -7 -29 -25 -59 -41 -29 -15 -54 -29 -55 -30 -1 -1 43
-2 99 -2 93 0 107 -3 162 -30 39 -20 96 -65 165 -131 58 -56 116 -107 130
-114 24 -13 23 -14 -42 -36 -139 -47 -245 -40 -418 26 -70 27 -80 34 -63 41
15 5 56 -2 123 -21 55 -16 117 -30 138 -31 65 -4 142 1 142 9 0 13 -304 109
-399 126 -46 9 -108 16 -139 16 -83 0 -60 7 60 18 137 13 157 23 89 45 -36 11
-69 14 -119 10 -45 -4 -72 -2 -76 5 -5 8 -15 8 -32 2 -45 -18 -49 -11 -13 26
43 45 135 90 219 108 83 18 93 19 88 4z m-3493 -55 c-11 -3 -26 -10 -32 -15
-8 -6 -13 -7 -13 -1 0 16 12 23 39 22 21 -1 22 -2 6 -6z m-1035 -39 c111 -26
270 -113 433 -235 81 -62 146 -114 143 -116 -2 -3 -35 13 -73 35 -161 94 -231
129 -226 114 5 -11 3 -13 -7 -7 -10 6 -12 4 -7 -8 10 -27 -36 -21 -161 22 -63
22 -112 37 -110 35 3 -2 24 -14 48 -27 83 -44 70 -48 -120 -33 -37 3 -118 24
-135 34 -24 16 -76 29 -81 21 -5 -9 36 -29 61 -29 7 0 21 -3 30 -6 13 -5 10
-9 -12 -21 -23 -12 -55 -14 -163 -9 -121 5 -178 14 -304 47 l-39 11 94 54
c139 80 224 110 389 138 41 7 170 -4 240 -20z m6270 -9 c102 -32 319 -150 303
-166 -4 -4 -51 -18 -103 -30 -116 -26 -385 -40 -378 -19 2 7 13 15 24 16 11 2
37 11 59 19 30 13 35 19 24 27 -11 7 -9 9 9 5 12 -3 20 -1 17 4 -3 4 17 11 46
15 40 5 48 9 34 17 -22 12 -124 -15 -184 -49 -24 -13 -51 -24 -60 -24 -9 0
-23 -6 -29 -12 -8 -8 -48 -13 -110 -14 -53 -1 -122 -5 -152 -8 l-55 -7 50 26
c28 14 43 23 34 21 -38 -10 -207 -58 -233 -66 -34 -11 -28 -4 29 34 38 26 39
27 10 20 -34 -8 -132 -59 -212 -110 -29 -18 -70 -41 -90 -49 -46 -18 -50 -22
122 109 202 153 304 211 450 252 70 19 319 13 395 -11z m-2463 -47 c-3 -8 -6
-5 -6 6 -1 11 2 17 5 13 3 -3 4 -12 1 -19z m-2922 -39 c58 0 67 -2 50 -12 -36
-21 -164 -14 -222 12 -90 40 -83 52 14 25 53 -15 116 -25 158 -25z m4310 15
c-83 -40 -161 -52 -225 -33 l-45 13 85 8 c47 4 117 16 155 27 101 28 110 24
30 -15z m-1408 -36 c-3 -8 -6 -5 -6 6 -1 11 2 17 5 13 3 -3 4 -12 1 -19z
m-1367 -130 c0 -77 -3 -108 -10 -98 -7 11 -10 7 -10 -18 0 -20 -6 -35 -15 -38
-17 -7 -19 -41 -5 -79 5 -14 6 -24 1 -21 -19 12 -44 135 -38 188 5 44 61 178
73 178 2 0 4 -51 4 -112z m1096 30 c24 -52 29 -76 28 -138 0 -50 -6 -87 -17
-110 -12 -23 -15 -27 -11 -10 3 14 8 43 9 65 2 23 1 28 -2 10 -7 -43 -21 -53
-28 -19 -4 16 -11 42 -16 58 -11 37 -12 206 0 206 4 0 21 -28 37 -62z m-1621
4 c17 -10 12 -11 -32 -12 -28 0 -55 -5 -58 -10 -4 -6 -11 -8 -16 -5 -5 4 -9
-5 -9 -18 0 -25 -17 -38 -85 -60 -38 -13 -33 -14 104 -20 79 -3 148 -10 154
-16 17 -17 -7 -20 -228 -25 -193 -4 -250 -10 -369 -41 -19 -5 -19 -4 3 12 34
26 267 161 326 190 42 20 61 23 120 20 39 -2 80 -9 90 -15z m2276 7 c43 -15
379 -213 379 -224 0 -2 -28 5 -62 16 -91 28 -235 41 -373 33 -110 -6 -118 -5
-100 10 19 15 17 15 -35 17 l-55 2 65 7 c36 4 108 9 160 10 52 1 86 5 75 7
-11 3 -39 14 -62 24 -26 12 -54 17 -70 14 -23 -4 -24 -4 -8 4 18 8 17 9 -10
13 -28 5 -29 6 -7 13 40 13 18 30 -41 30 -60 0 -63 4 -14 22 42 15 115 16 158
2z m-1267 -18 c4 -5 -3 -7 -14 -4 -23 6 -26 13 -6 13 8 0 17 -4 20 -9z m64
-18 c-10 -2 -26 -2 -35 0 -10 3 -2 5 17 5 19 0 27 -2 18 -5z m-289 -88 c94
-33 274 -47 408 -31 44 6 46 5 18 -5 -35 -14 -74 -39 -59 -39 5 0 16 6 24 13
12 10 12 9 1 -5 -7 -10 -22 -18 -32 -18 -10 0 -21 -4 -24 -10 -6 -10 29 -6 95
11 53 13 60 10 15 -8 -72 -28 -379 -30 -334 -2 11 7 9 12 -11 26 -14 10 -29
17 -33 15 -5 -1 -6 2 -2 8 3 5 0 10 -7 10 -14 0 -117 48 -107 49 4 1 25 -6 48
-14z m-3154 -15 c3 -5 12 -7 20 -4 8 3 38 -8 67 -25 83 -47 132 -54 246 -36
53 8 115 17 137 20 l40 5 -35 -14 c-19 -8 -46 -15 -60 -16 -23 -1 -23 -2 -5
-10 l20 -9 -20 -2 c-11 -1 -33 -4 -50 -6 -16 -2 -43 -3 -60 -3 l-30 0 31 -14
c98 -43 219 -44 381 -3 l93 23 -23 -25 c-12 -13 -15 -21 -7 -16 8 4 1 -6 -15
-24 -34 -35 -112 -65 -215 -83 -131 -23 -255 17 -407 131 -114 86 -151 120
-131 121 9 0 19 -4 23 -10z m6820 -32 c-140 -124 -254 -189 -365 -208 -59 -10
-86 -9 -168 4 -89 15 -222 65 -222 84 0 4 -12 20 -26 36 -22 23 -23 27 -8 22
168 -51 373 -62 479 -26 34 11 46 18 27 15 -17 -2 -44 0 -60 6 -15 6 -52 16
-82 23 -30 6 -54 16 -52 21 3 12 38 12 122 -3 90 -16 179 -15 214 3 15 8 35
15 42 15 8 0 14 5 14 11 0 5 4 8 9 5 5 -4 11 -1 13 5 2 6 21 13 43 16 22 2 41
6 44 8 2 3 9 5 14 5 5 0 -12 -19 -38 -42z m-5724 -5 c13 -16 12 -17 -3 -4 -17
13 -22 21 -14 21 2 0 10 -8 17 -17z m5219 -4 c11 -7 4 -8 -25 -3 -50 8 -58 14
-19 14 16 0 36 -5 44 -11z m-4760 -33 c18 -23 8 -61 -16 -64 -28 -4 -55 23
-47 46 12 33 43 42 63 18z m3798 -23 c4 -27 -22 -47 -52 -39 -34 8 -42 37 -16
58 26 21 64 10 68 -19z m-1038 -45 c51 -16 134 -71 159 -107 23 -31 54 -98 66
-141 6 -19 1 -16 -22 15 -34 46 -57 67 -69 63 -5 -2 -30 12 -56 30 -26 17 -49
32 -51 32 -2 0 -26 12 -51 26 -50 28 -56 41 -11 24 15 -6 30 -8 32 -6 7 7 -87
52 -127 62 l-35 8 30 6 c34 8 84 3 135 -12z m449 -23 c133 -8 140 -17 26 -36
-53 -9 -84 -9 -134 0 -67 13 -165 56 -157 70 3 4 36 0 73 -9 37 -10 124 -21
192 -25z m-2449 15 c-8 -6 -40 -20 -70 -32 -66 -26 -200 -29 -270 -5 l-45 15
80 1 c44 1 119 7 167 15 60 9 85 9 81 2 -4 -7 -2 -7 8 0 15 13 51 23 59 17 2
-2 -2 -8 -10 -13z m345 9 c-22 -5 -50 -11 -63 -14 -13 -3 -20 -10 -17 -15 5
-9 -68 -62 -155 -112 -25 -15 -57 -41 -70 -59 -61 -80 -61 -80 -44 -19 45 156
143 230 309 229 71 -1 75 -2 40 -10z m3309 -4 c29 -8 79 -29 112 -46 50 -25
54 -29 24 -23 -19 4 -38 11 -41 16 -3 5 -9 9 -13 9 -23 -3 -36 0 -31 9 3 5 0
8 -7 5 -7 -3 -35 6 -63 19 -59 29 -53 32 19 11z m-5115 -9 c-14 -12 -110 -55
-104 -47 3 6 1 11 -4 11 -6 0 -11 -5 -11 -11 0 -5 -5 -7 -11 -3 -15 9 -1 21
46 38 36 13 95 22 84 12z m2436 -22 c53 -9 123 -14 172 -12 45 2 79 0 77 -4
-3 -4 -12 -8 -20 -8 -10 0 -6 -8 12 -23 31 -27 35 -25 -91 -34 -98 -6 -211 9
-242 33 -16 12 -14 13 14 3 21 -7 42 -8 60 -2 26 9 24 11 -45 38 -69 27 -96
44 -49 31 12 -3 62 -13 112 -22z m-2043 -23 c147 -38 294 -132 464 -297 115
-111 122 -128 24 -58 -35 25 -49 31 -58 22 -8 -8 -15 -8 -26 1 -11 10 -16 9
-23 -3 -7 -13 -12 -13 -43 0 -19 9 -35 14 -35 13 0 -1 -19 8 -43 20 -23 12
-54 26 -69 32 -22 8 -24 7 -14 -5 10 -11 7 -16 -16 -25 -24 -10 -24 -10 -3 -5
66 15 75 15 41 -1 -44 -20 -63 -19 -112 7 -28 14 -43 18 -48 10 -7 -12 -89 2
-105 19 -6 5 -17 9 -25 9 -10 -1 -4 -7 12 -16 15 -8 27 -16 27 -18 0 -11 -127
9 -142 21 -12 11 -18 11 -23 3 -6 -9 -9 -9 -15 0 -5 7 -13 9 -21 5 -7 -5 -40
-7 -75 -6 -35 1 -65 -2 -69 -8 -3 -6 -11 -11 -16 -11 -6 0 -7 6 -3 13 5 7 1 7
-12 -3 -29 -22 -30 -24 -11 -17 9 4 17 2 17 -3 0 -6 11 -10 25 -10 50 0 22
-16 -98 -55 -87 -28 -144 -41 -199 -43 -43 -2 -78 -1 -78 2 0 15 87 134 133
183 66 71 113 87 220 80 92 -6 166 -29 245 -76 61 -36 74 -39 41 -10 l-24 20
24 -7 c16 -4 21 -3 17 5 -4 6 -3 11 3 11 5 0 13 -4 16 -10 3 -5 12 -10 18 -10
16 0 -35 34 -105 71 -71 36 -180 62 -231 56 l-39 -5 34 25 c118 88 264 114
420 74z m4616 -5 c51 -18 111 -50 142 -76 l25 -21 -27 7 c-15 3 -51 1 -79 -5
-83 -18 -296 -132 -283 -152 3 -5 12 -2 20 6 9 8 22 16 30 16 27 3 32 4 40 12
12 12 26 8 18 -5 -5 -7 3 -5 16 4 94 67 280 99 365 64 49 -21 115 -86 174
-170 28 -41 51 -77 51 -80 0 -3 -32 -6 -71 -6 -56 0 -98 9 -207 44 -75 25
-146 47 -157 49 -11 3 0 6 25 7 79 4 103 16 35 19 -57 2 -94 4 -140 10 l-20 2
20 9 c11 5 34 9 50 10 21 2 24 4 11 7 -25 7 -136 -17 -136 -29 0 -5 -35 -8
-77 -7 -50 1 -115 -6 -181 -21 -75 -16 -107 -19 -115 -11 -7 7 -6 16 6 29 20
22 22 37 5 25 -7 -4 -19 -8 -25 -9 -7 -1 -46 -18 -85 -38 -88 -42 -156 -52
-144 -21 6 16 -9 21 -19 6 -3 -5 -27 -21 -53 -35 -42 -24 -35 -15 68 87 215
212 403 302 607 291 39 -2 89 -10 111 -18z m-5163 -6 c-3 -5 -12 -10 -18 -10
-7 0 -6 4 3 10 19 12 23 12 15 0z m3451 -40 c8 0 13 -3 13 -7 -3 -21 2 -34 11
-28 13 8 42 -14 35 -26 -3 -4 3 -7 12 -7 21 1 187 -45 253 -70 l45 -17 -87 -3
c-109 -3 -157 9 -203 52 -19 18 -35 31 -35 29 0 -3 -16 14 -35 37 -19 23 -35
47 -34 53 0 8 2 8 6 0 2 -7 11 -13 19 -13z m-1472 -25 c-15 -14 -23 -25 -19
-25 16 0 -39 -51 -84 -77 -41 -24 -58 -28 -151 -31 -125 -3 -119 6 27 43 107
28 190 64 218 95 10 11 22 20 27 20 5 0 -3 -11 -18 -25z m191 -61 c2 -33 6
-67 10 -76 5 -13 2 -18 -8 -18 -9 0 -22 -3 -30 -6 -10 -3 -18 5 -26 27 -18 52
-14 106 10 130 29 29 40 14 44 -57z m2191 50 c15 -22 15 -27 3 -39 -42 -40
-97 -8 -66 39 22 33 42 33 63 0z m-3212 0 c13 -33 6 -54 -19 -60 -43 -11 -73
34 -43 64 17 17 55 15 62 -4z m2176 -3 c5 -11 10 -45 10 -76 0 -44 -4 -57 -17
-61 -10 -3 -26 -10 -35 -15 -14 -7 -16 -5 -11 8 5 11 3 14 -6 8 -10 -6 -11 -3
-2 13 6 11 11 45 11 75 0 29 3 57 7 60 12 13 32 7 43 -12z m-1310 -70 c0 -21
-101 -110 -143 -126 -98 -37 -72 -7 83 97 63 42 60 41 60 29z m1543 -83 c37
-29 63 -54 58 -56 -31 -10 -189 97 -175 119 3 5 0 9 -5 9 -6 0 -11 5 -11 11 0
14 45 -14 133 -83z m-2114 40 c48 -36 86 -80 115 -133 74 -134 106 -199 89
-179 -10 11 -31 29 -46 39 -17 10 -26 24 -23 32 3 8 2 12 -3 8 -5 -3 -18 6
-29 19 -13 17 -22 22 -29 15 -7 -7 -26 8 -59 47 -109 129 -118 135 -59 39 30
-49 76 -114 101 -143 25 -29 44 -55 42 -58 -3 -2 -11 2 -18 11 -7 8 -21 15
-32 15 -31 0 -112 46 -151 86 -20 21 -37 33 -37 27 0 -7 5 -15 11 -18 5 -4 8
-12 6 -18 -3 -7 5 -23 17 -37 l21 -25 -24 20 c-30 26 -67 91 -75 134 -7 37 8
103 30 138 13 21 15 21 76 7 34 -8 69 -20 77 -26z m2723 -9 c21 -55 22 -100 4
-144 -17 -41 -72 -100 -80 -86 -4 5 0 13 7 18 17 10 47 54 47 68 0 5 -9 -4
-20 -22 -10 -17 -28 -37 -40 -43 -11 -6 -19 -14 -16 -18 2 -4 -3 -8 -12 -8 -9
-1 -43 -13 -74 -27 -32 -15 -58 -22 -58 -17 0 6 4 10 10 10 6 0 9 4 8 9 -2 5
15 38 38 73 22 35 58 90 78 123 l37 60 -33 -36 c-18 -20 -52 -61 -76 -93 -24
-31 -48 -54 -53 -51 -5 3 -6 0 -3 -8 5 -15 -39 -51 -50 -40 -3 3 -3 18 0 32 6
24 4 23 -17 -8 -71 -101 -79 -96 -24 16 63 128 98 173 159 203 42 20 121 40
141 36 6 -2 18 -23 27 -47z m913 11 c-3 -5 -11 -10 -16 -10 -6 0 -7 5 -4 10 3
6 11 10 16 10 6 0 7 -4 4 -10z m-4888 -86 c-3 -3 -12 -4 -19 -1 -8 3 -5 6 6 6
11 1 17 -2 13 -5z m40 0 c-3 -3 -12 -4 -19 -1 -8 3 -5 6 6 6 11 1 17 -2 13 -5z
m4926 -21 c-7 -2 -19 -2 -25 0 -7 3 -2 5 12 5 14 0 19 -2 13 -5z m-2672 -67
c169 -34 352 -29 517 13 39 11 72 17 72 15 0 -9 -71 -40 -130 -56 -36 -10 -52
-16 -37 -14 20 2 25 0 18 -7 -6 -6 -26 -11 -45 -11 -19 -1 -32 -4 -30 -8 8
-13 -283 -3 -298 10 -8 6 -52 23 -98 38 -73 23 -170 68 -170 80 0 1 28 -8 63
-21 35 -13 97 -30 138 -39z m504 -36 c-3 -5 -14 -10 -23 -9 -14 0 -13 2 3 9
27 11 27 11 20 0z m-1112 -59 c6 -25 0 -31 -30 -31 -17 0 -22 -4 -17 -12 4 -7
-2 -5 -14 5 -22 20 -20 43 6 64 19 15 47 2 55 -26z m3443 15 c32 -13 84 -34
114 -48 l55 -25 -72 -16 c-101 -24 -157 -20 -154 9 1 5 -3 9 -8 9 -6 0 -15 5
-22 12 -10 10 -9 14 4 19 9 3 15 10 12 14 -3 5 5 6 17 3 22 -4 22 -3 -2 11
-16 10 -19 15 -10 16 13 0 13 1 0 10 -27 17 5 11 66 -14z m-5161 -2 l-30 -14
29 5 c24 5 27 3 22 -11 -5 -13 -4 -14 7 -6 8 7 17 9 20 5 4 -3 15 0 25 8 10 8
7 4 -8 -9 -14 -12 -38 -36 -55 -52 -35 -35 -60 -37 -165 -14 l-72 17 33 12
c19 6 59 23 89 37 73 34 81 36 110 37 24 0 24 0 -5 -15z m3469 -6 c16 -26 -5
-54 -35 -50 -36 5 -44 18 -31 47 14 30 48 31 66 3z m1331 11 c66 -18 295 -110
295 -119 0 -22 -177 -43 -257 -30 -64 11 -155 49 -169 71 -4 7 -3 9 4 5 5 -3
12 -2 14 3 1 5 38 0 81 -11 43 -11 81 -18 84 -14 4 3 -3 17 -15 29 -12 13 -19
27 -15 31 4 4 -1 4 -12 0 -11 -4 -17 -3 -12 1 4 5 -10 16 -30 26 -43 20 -27
24 32 8z m-4460 -9 c3 -6 -1 -7 -10 -4 -16 7 -55 -21 -55 -39 0 -6 -7 -18 -16
-28 -14 -16 -11 -16 56 -3 39 7 75 16 80 19 5 3 7 -1 4 -9 -4 -11 0 -13 18 -9
l23 5 -25 -21 c-38 -32 -120 -52 -212 -53 -82 -1 -198 17 -198 30 1 16 265
120 307 121 12 1 25 -3 28 -9z m3550 0 c-3 -5 -16 -15 -28 -21 -19 -9 -19 -8
3 10 28 23 34 26 25 11z m-1952 -24 c102 -20 144 -43 216 -122 47 -52 77 -98
126 -201 65 -133 78 -166 49 -125 -8 12 -24 27 -36 33 -18 10 -20 9 -15 -5 4
-9 5 -16 3 -16 -2 0 -40 47 -84 104 -45 57 -90 109 -99 117 -16 13 -17 12 -4
-4 8 -9 12 -19 10 -22 -3 -2 -15 13 -29 33 -32 49 -61 82 -73 82 -6 0 -5 -5 1
-12 19 -24 50 -127 45 -149 l-6 -23 -10 25 c-8 19 -11 21 -14 7 -5 -20 43
-128 57 -128 5 0 10 5 10 12 0 6 3 8 6 5 4 -4 1 -13 -6 -22 -10 -12 -10 -15 0
-15 8 0 10 -3 7 -7 -4 -3 3 -18 15 -32 18 -20 16 -20 -10 4 -41 37 -83 116
-113 215 -33 111 -62 173 -104 219 -42 46 -43 46 58 27z m1299 -33 c-39 -47
-83 -144 -97 -213 -10 -50 -73 -175 -98 -197 -22 -18 -22 -18 -6 2 38 48 61
116 61 178 0 34 4 77 10 95 5 18 8 36 5 38 -3 3 -29 -24 -58 -60 -28 -36 -55
-63 -60 -61 -9 6 -49 -44 -114 -142 -26 -39 -53 -74 -61 -77 -15 -6 -20 9 -5
18 5 3 11 15 14 27 5 20 5 20 -13 4 -24 -21 67 191 105 245 71 102 141 149
258 175 102 22 103 21 59 -32z m1249 -2 c41 -11 130 -42 199 -70 l125 -51 -50
0 c-96 0 -168 18 -272 70 -94 46 -124 70 -90 70 8 0 47 -9 88 -19z m-3761 0
c0 -11 -153 -86 -205 -100 -22 -6 -52 -11 -68 -11 -15 0 -35 -5 -45 -11 -11
-7 -29 -8 -50 -2 -32 8 -31 9 66 51 55 24 126 52 158 62 62 20 144 26 144 11z
m1546 -46 c41 -19 93 -48 115 -66 74 -58 130 -162 144 -264 l6 -50 -24 55
c-30 69 -77 149 -77 132 0 -7 12 -36 26 -65 19 -36 22 -48 10 -38 -15 13 -16
12 -6 -13 8 -21 7 -28 -5 -32 -13 -5 -37 16 -82 75 -21 27 -15 -5 8 -44 12
-20 20 -38 17 -40 -5 -5 -104 144 -166 250 -39 66 -63 135 -48 135 4 0 41 -16
82 -35z m668 13 c-12 -41 -53 -116 -125 -230 -75 -119 -115 -171 -84 -110 9
19 14 36 11 40 -3 3 -6 0 -6 -7 0 -7 -4 -10 -9 -6 -5 3 -12 -3 -15 -13 -4 -10
-13 -19 -22 -19 -13 0 -15 11 -11 69 3 37 3 68 1 68 -8 0 -49 -90 -70 -155
-26 -80 -31 -54 -10 46 29 136 107 233 239 299 93 47 111 50 101 18z m1541
-40 c17 -10 26 -18 22 -18 -11 0 -107 49 -107 55 0 6 46 -14 85 -37z m-3291
-7 c47 -26 79 -36 160 -46 193 -25 399 -90 484 -152 41 -31 42 -49 0 -23 -17
10 -36 16 -41 13 -6 -4 -7 -1 -2 7 6 10 3 12 -13 8 -12 -4 -22 -3 -22 1 0 5
-23 15 -52 25 -38 12 -53 13 -59 5 -4 -8 -20 -9 -43 -5 -20 4 -38 7 -41 7 -2
0 -19 5 -37 10 -50 15 -148 21 -148 9 0 -9 20 -14 47 -11 6 1 15 -4 19 -10 4
-8 3 -9 -5 -5 -6 4 -17 3 -24 -2 -7 -5 -34 -13 -62 -17 -53 -7 -91 -23 -81
-32 9 -9 -33 -35 -44 -28 -6 3 -10 2 -10 -4 0 -5 -6 -8 -12 -7 -7 2 -31 6 -53
11 -22 4 -49 12 -60 18 -11 6 -40 12 -65 13 -49 3 -74 7 -165 23 -109 20 -162
13 -205 -25 -8 -8 -26 -24 -40 -36 -15 -13 -19 -18 -10 -11 74 57 186 56 400
-3 53 -15 60 -20 45 -30 -9 -7 -40 -16 -68 -20 -50 -7 -79 -10 -176 -13 -53
-1 -48 -10 16 -26 44 -11 39 -12 -103 -18 -82 -3 -164 -10 -183 -16 l-34 -10
6 50 c15 121 86 214 233 301 122 72 181 89 294 85 87 -2 101 -6 154 -36z
m3068 2 c83 -39 205 -121 254 -170 44 -45 85 -129 92 -188 l4 -42 -63 13 c-35
8 -111 14 -169 15 -113 1 -168 11 -138 23 23 10 11 38 -16 34 -11 -1 -26 1
-32 5 -17 10 -116 12 -139 3 l-20 -9 20 17 c19 16 19 16 -10 11 -27 -5 -28 -4
-5 4 104 37 202 56 293 56 66 0 91 3 77 9 -22 10 -27 25 -7 27 6 1 1 5 -13 9
-45 15 -138 10 -227 -11 -48 -11 -96 -18 -106 -15 -9 2 -15 0 -11 -5 3 -5 -2
-9 -11 -9 -9 0 -23 -7 -32 -16 -9 -8 -22 -13 -30 -10 -8 3 -11 1 -8 -4 3 -6 2
-10 -4 -10 -5 0 -13 5 -16 11 -4 6 -13 8 -21 5 -8 -3 -14 1 -14 9 0 10 -10 15
-31 15 -16 0 -28 4 -25 9 3 5 -13 12 -37 16 -36 6 -39 8 -22 16 16 7 13 8 -12
4 -20 -3 -33 0 -33 6 0 7 -11 9 -25 7 -14 -3 -25 -1 -25 3 0 5 3 9 8 10 8 1
23 5 72 18 28 9 21 10 -40 5 -160 -10 -356 -49 -405 -79 -11 -6 -36 -17 -55
-23 l-35 -12 30 25 c93 78 334 159 535 180 42 4 81 16 110 33 61 35 92 41 190
39 71 -3 96 -8 152 -34z m318 -33 c8 -5 11 -10 5 -10 -5 0 -17 5 -25 10 -8 5
-10 10 -5 10 6 0 17 -5 25 -10z m83 -17 c-7 -2 -19 -2 -25 0 -7 3 -2 5 12 5
14 0 19 -2 13 -5z m-3228 -143 c-3 -5 -11 -10 -16 -10 -6 0 -7 5 -4 10 3 6 11
10 16 10 6 0 7 -4 4 -10z m-109 -25 c-30 -16 -43 -14 -31 4 3 6 18 11 33 11
l27 0 -29 -15z m2921 9 c-3 -3 -12 -4 -19 -1 -8 3 -5 6 6 6 11 1 17 -2 13 -5z
m-1580 -46 c-3 -8 -6 -5 -6 6 -1 11 2 17 5 13 3 -3 4 -12 1 -19z m-804 -75
c32 -9 59 -19 62 -22 2 -4 -41 -7 -96 -8 -79 -1 -122 -8 -209 -33 -110 -31
-242 -82 -269 -104 -11 -8 -13 -8 -10 1 7 22 120 103 193 139 112 55 197 62
329 27z m1662 2 c28 -8 82 -36 121 -62 76 -51 156 -115 150 -120 -2 -2 -30 13
-62 32 -62 38 -244 100 -333 114 -29 5 -84 7 -122 5 -38 -1 -67 1 -64 6 6 9
83 36 125 43 37 7 128 -2 185 -18z m-2140 -73 c-18 -13 -110 -126 -108 -133 1
-3 -9 -17 -22 -29 -14 -13 -25 -20 -25 -16 0 4 10 16 23 27 12 10 17 18 10 19
-6 0 -14 -4 -17 -9 -3 -5 -36 -21 -73 -36 -51 -20 -109 -32 -233 -46 -91 -10
-167 -19 -169 -19 -2 0 25 19 60 41 35 23 77 52 92 65 30 25 53 32 41 12 -4
-7 -3 -8 5 -4 6 4 9 11 6 16 -3 4 1 13 9 19 11 9 12 6 9 -14 -3 -13 -11 -30
-19 -36 -30 -25 -12 -30 20 -5 19 14 38 26 42 26 4 0 19 10 33 23 l26 22 -20
-24 -20 -25 34 20 c19 10 36 25 39 33 3 9 0 11 -9 6 -8 -5 -11 -4 -6 1 5 5 11
8 13 6 3 -2 13 6 22 17 9 10 31 27 47 37 28 17 29 17 16 1 -19 -24 -5 -35 15
-11 15 18 15 17 1 -6 -9 -14 -19 -24 -24 -23 -4 1 -9 -10 -9 -23 -2 -26 -2
-26 64 19 24 16 49 30 55 31 7 1 26 9 42 18 28 15 51 15 30 0z m2388 3 c-8 21
-9 22 93 -47 39 -26 74 -48 78 -48 4 0 -1 12 -12 28 -35 50 -35 51 0 39 17 -7
45 -26 62 -43 35 -35 152 -112 140 -92 -4 7 -14 21 -22 31 -15 16 -14 17 3 11
13 -5 16 -4 11 5 -6 8 2 7 23 -3 17 -9 31 -19 31 -22 0 -3 -5 -2 -12 2 -7 4
-8 3 -4 -5 4 -6 11 -9 15 -7 4 3 41 -17 81 -44 69 -46 72 -49 40 -45 -19 2
-80 9 -135 15 -159 18 -218 38 -316 109 -46 33 -135 142 -95 116 25 -17 26
-17 19 0z m-2935 -16 c43 -8 60 -14 51 -20 -8 -5 -22 -9 -32 -9 -10 0 -39 -14
-64 -32 -25 -17 -42 -25 -38 -17 4 8 -7 1 -25 -16 -18 -16 -29 -24 -25 -16 10
17 -77 -44 -102 -71 -9 -10 -24 -18 -33 -18 -10 0 -23 -7 -30 -15 -9 -11 -9
-15 -1 -15 7 0 9 -4 6 -10 -17 -27 -25 -2 -25 78 1 92 6 106 53 137 54 35 151
44 265 24z m1343 -6 c13 -16 12 -17 -3 -4 -17 13 -22 21 -14 21 2 0 10 -8 17
-17z m2312 6 c21 -5 53 -24 72 -41 l35 -30 -1 -87 c0 -47 -3 -80 -6 -72 -6 15
-62 66 -72 66 -21 0 -82 39 -78 49 4 9 -2 11 -17 9 -13 -3 -32 5 -51 22 -35
31 -101 64 -129 65 -32 0 -5 18 34 23 72 8 176 7 213 -4z m-3663 -73 c0 -2 -7
-7 -16 -10 -8 -3 -12 -2 -9 4 6 10 25 14 25 6z m3020 -51 c13 -14 21 -25 18
-25 -2 0 -15 11 -28 25 -13 14 -21 25 -18 25 2 0 15 -11 28 -25z m-1990 -6 c0
-5 -4 -8 -10 -4 -5 3 -27 -10 -48 -30 -47 -42 -60 -45 -38 -7 l17 27 -20 -24
c-12 -12 -19 -26 -16 -30 2 -4 -30 -41 -71 -82 -41 -41 -74 -67 -72 -59 2 9
-3 14 -12 12 -17 -4 -16 -2 63 81 24 26 43 47 41 47 -3 0 -44 -24 -92 -54 -48
-30 -90 -55 -94 -55 -5 -1 -18 -11 -30 -23 -20 -20 -22 -20 -35 -3 -18 26 -16
52 7 90 23 38 54 60 113 82 95 34 297 56 297 32z m1604 -8 c120 -24 189 -61
222 -117 13 -23 22 -48 19 -56 -6 -15 -39 -18 -52 -3 -5 4 -2 5 6 0 9 -5 12
-4 7 3 -4 6 -13 9 -21 5 -8 -3 -15 0 -15 7 0 6 -8 10 -17 9 -20 -3 -57 14 -88
41 -11 9 -38 27 -60 40 -36 21 -32 15 34 -52 40 -42 69 -78 63 -82 -5 -3 -15
1 -22 9 -7 8 -9 15 -4 15 5 0 -3 8 -16 17 -14 10 -29 17 -33 15 -5 -1 -5 2 -2
8 4 7 1 10 -7 8 -7 -2 -14 1 -15 5 -2 13 -55 67 -65 67 -5 0 -6 -6 -2 -12 4
-7 -6 -2 -22 12 -16 14 -30 28 -32 33 -2 4 -8 5 -12 2 -5 -3 -11 -1 -14 4 -4
5 2 8 11 6 10 -2 24 -4 31 -4 7 -1 10 -6 6 -13 -4 -7 -3 -8 4 -4 6 4 22 2 34
-4 22 -11 22 -11 3 5 -11 8 -35 20 -55 25 -110 28 -110 28 -43 29 33 1 104 -8
157 -18z m-1524 -35 c0 -2 -7 -7 -16 -10 -8 -3 -12 -2 -9 4 6 10 25 14 25 6z
m2601 -13 c13 -16 12 -17 -3 -4 -10 7 -18 15 -18 17 0 8 8 3 21 -13z m-1266
-3 c3 -5 -1 -10 -10 -10 -9 0 -13 5 -10 10 3 6 8 10 10 10 2 0 7 -4 10 -10z
m54 -54 c27 -27 28 -32 11 -32 -10 0 -17 2 -15 4 2 3 0 13 -6 23 -6 13 -18 18
-33 15 -13 -2 -23 1 -23 8 0 23 35 14 66 -18z m-1464 6 c-3 -3 -11 0 -18 7 -9
10 -8 11 6 5 10 -3 15 -9 12 -12z m436 -7 l34 -14 -51 -1 c-28 0 -77 -5 -110
-11 -32 -6 -64 -12 -71 -13 -7 -1 -16 -5 -19 -9 -17 -16 -25 -5 -10 12 45 49
157 67 227 36z m720 -9 c22 -15 19 -16 -76 -13 -97 4 -126 13 -88 29 29 13
139 2 164 -16z m-1201 9 c0 -2 -10 -9 -22 -15 -22 -11 -22 -10 -4 4 21 17 26
19 26 11z m-13 -41 c-3 -3 -12 -4 -19 -1 -8 3 -5 6 6 6 11 1 17 -2 13 -5z
m1724 -61 c13 -16 12 -17 -3 -4 -10 7 -18 15 -18 17 0 8 8 3 21 -13z m-1941
-3 c0 -5 -5 -10 -11 -10 -5 0 -7 5 -4 10 3 6 8 10 11 10 2 0 4 -4 4 -10z m775
0 c3 -6 -4 -10 -17 -11 -22 0 -22 -1 -3 -9 25 -11 30 -10 -89 -17 -81 -5 -98
-3 -94 8 3 8 15 20 29 26 29 15 165 17 174 3z m582 -14 c17 -18 17 -18 1 -13
-11 4 -17 2 -15 -6 2 -14 -45 -15 -108 -2 -33 6 -36 9 -20 15 21 8 16 12 -30
24 -11 3 19 4 67 3 71 -2 91 -6 105 -21z m-320 -170 c74 -81 111 -222 83 -320
-21 -75 -36 -74 -32 2 5 84 -13 175 -44 230 -30 51 -38 54 -18 6 21 -51 10
-125 -17 -108 -11 7 -36 64 -55 127 -8 26 -16 47 -19 47 -2 0 -15 -31 -29 -68
-37 -97 -58 -204 -51 -265 l6 -52 -18 30 c-14 23 -18 50 -17 120 1 104 24 177
80 250 19 25 34 52 34 61 0 13 4 13 31 -3 17 -10 47 -35 66 -57z m223 17 l35
-38 -42 39 c-22 21 -45 36 -50 33 -6 -4 -10 0 -10 8 0 20 25 5 67 -42z m-520
32 c-7 -9 -15 -13 -19 -10 -3 3 1 10 9 15 21 14 24 12 10 -5z m-10 -32 c0 -3
-6 -3 -14 0 -7 3 -20 0 -27 -6 -11 -10 -11 -9 0 5 11 15 41 15 41 1z"/>
<path d="M6435 8032 c-7 -20 -4 -21 23 -7 22 12 22 13 3 18 -12 3 -22 -1 -26
-11z"/>
<path d="M5140 7805 c0 -60 3 -75 15 -75 12 0 15 15 15 75 0 60 -3 75 -15 75
-12 0 -15 -15 -15 -75z"/>
<path d="M3201 7760 c9 -18 9 -25 0 -28 -6 -2 -11 -8 -11 -14 0 -5 14 0 30 12
17 12 30 26 30 32 0 6 -6 6 -15 -2 -13 -11 -18 -10 -31 6 -14 18 -14 17 -3 -6z"/>
<path d="M7122 7766 c7 -8 15 -12 17 -11 5 6 -10 25 -20 25 -5 0 -4 -6 3 -14z"/>
<path d="M7165 7719 c-4 -6 -5 -12 -2 -15 2 -3 7 2 10 11 7 17 1 20 -8 4z"/>
<path d="M7129 7705 c5 -11 16 -28 23 -38 13 -18 15 -18 37 0 22 18 22 19 3
19 -11 0 -19 -4 -16 -7 2 -4 0 -10 -6 -14 -5 -3 -10 -3 -10 2 0 4 -10 19 -21
33 -14 17 -17 19 -10 5z"/>
<path d="M6927 7709 c7 -7 15 -10 18 -7 3 3 -2 9 -12 12 -14 6 -15 5 -6 -5z"/>
<path d="M2556 6957 c3 -10 9 -15 12 -12 3 3 0 11 -7 18 -10 9 -11 8 -5 -6z"/>
<path d="M2616 6697 c3 -10 9 -15 12 -12 3 3 0 11 -7 18 -10 9 -11 8 -5 -6z"/>
<path d="M2677 6653 c-8 -8 32 -53 46 -53 5 0 -2 9 -17 21 -14 11 -24 25 -21
30 7 11 1 12 -8 2z"/>
<path d="M3002 7422 c-49 -4 -63 -23 -37 -52 20 -22 69 -18 98 9 19 18 15 48
-6 47 -7 -1 -31 -2 -55 -4z"/>
<path d="M4425 6860 c38 -40 133 -106 191 -131 39 -18 65 -20 219 -18 97 1
173 4 171 6 -3 3 4 14 14 26 11 11 17 23 15 28 -3 4 15 25 40 47 25 22 45 43
45 46 0 4 -12 -5 -27 -19 -56 -51 -103 -65 -225 -65 -136 0 -280 15 -329 34
-19 8 -60 29 -90 46 l-54 32 30 -32z"/>
<path d="M5243 6843 c0 -16 2 -22 4 -15 7 18 24 15 21 -4 -2 -11 5 -18 22 -21
24 -3 23 -2 -10 32 -19 19 -35 35 -36 35 -1 0 -1 -12 -1 -27z"/>
<path d="M5930 6851 c-68 -50 -229 -75 -462 -69 -123 2 -152 1 -139 -9 14 -11
14 -12 -2 -13 -16 0 -17 -2 -3 -15 8 -8 21 -15 28 -16 7 0 4 -4 -7 -9 -12 -6
61 -8 190 -7 l210 2 70 43 c39 24 89 59 110 77 43 37 46 46 5 16z"/>
<path d="M4291 6514 c0 -11 3 -14 6 -6 3 7 2 16 -1 19 -3 4 -6 -2 -5 -13z"/>
<path d="M4471 6384 c0 -11 3 -14 6 -6 3 7 2 16 -1 19 -3 4 -6 -2 -5 -13z"/>
<path d="M4507 6380 c-10 -28 -50 -240 -46 -244 8 -7 119 -14 119 -8 0 4 -12
52 -26 107 -15 55 -30 114 -34 130 -5 20 -9 25 -13 15z"/>
<path d="M5242 5915 c0 -16 2 -22 5 -12 2 9 2 23 0 30 -3 6 -5 -1 -5 -18z"/>
<path d="M5238 5865 c-10 -17 -60 -206 -55 -212 3 -2 8 10 12 28 4 18 16 48
27 67 10 19 16 42 13 50 -3 8 -1 19 6 22 6 4 9 18 7 31 -2 13 -6 20 -10 14z"/>
<path d="M4190 5800 c0 -14 -3 -34 -6 -45 -5 -18 5 -24 83 -49 48 -16 94 -31
101 -33 7 -3 12 3 11 18 -1 19 -2 20 -6 6 -4 -16 -8 -14 -28 15 -13 19 -48 46
-82 63 -32 17 -61 35 -65 40 -4 6 -8 -1 -8 -15z"/>
<path d="M7243 7421 c-17 -12 -7 -46 18 -60 31 -17 74 -8 89 19 9 17 7 21 -7
26 -10 3 -27 10 -38 14 -22 9 -50 10 -62 1z"/>
<path d="M3369 6375 c-2 -126 -3 -240 -1 -251 3 -23 77 -60 88 -43 3 5 14 9
25 9 27 0 24 18 -3 22 -37 5 -51 50 -51 162 l0 101 -12 -70 -12 -70 -7 95
c-21 286 -22 288 -27 45z"/>
<path d="M3416 6415 c-3 -8 -1 -15 4 -15 6 0 10 7 10 15 0 8 -2 15 -4 15 -2 0
-6 -7 -10 -15z"/>
<path d="M3468 6069 c4 -4 21 -11 37 -14 20 -5 26 -4 16 3 -10 7 -10 11 -1 14
7 2 -3 4 -23 4 -21 0 -34 -3 -29 -7z"/>
<path d="M3548 6053 c7 -3 16 -2 19 1 4 3 -2 6 -13 5 -11 0 -14 -3 -6 -6z"/>
<path d="M6311 6655 c-1 -82 -4 -296 -7 -474 -5 -310 -5 -323 13 -316 10 4 38
13 63 21 71 22 110 50 110 79 0 19 -3 23 -17 17 -10 -4 -37 -16 -60 -26 -25
-10 -43 -25 -43 -34 0 -40 -11 2 -16 59 -3 35 -10 98 -16 139 -6 41 -14 212
-18 380 -4 211 -7 259 -9 155z"/>
<path d="M6762 6216 c-2 -199 -2 -199 18 -181 11 10 20 16 20 13 0 -3 33 6 72
21 47 17 74 33 76 44 5 25 -24 21 -92 -13 -70 -35 -69 -35 -61 -10 3 10 1 47
-6 82 -6 35 -15 104 -19 153 -6 75 -7 56 -8 -109z"/>
<path d="M4238 7223 c7 -3 16 -2 19 1 4 3 -2 6 -13 5 -11 0 -14 -3 -6 -6z"/>
<path d="M2080 6301 c0 -6 4 -13 10 -16 6 -3 7 1 4 9 -7 18 -14 21 -14 7z"/>
<path d="M8125 6089 c-4 -6 -5 -12 -2 -15 2 -3 7 2 10 11 7 17 1 20 -8 4z"/>
<path d="M7986 6535 c-9 -26 -7 -32 5 -12 6 10 9 21 6 23 -2 3 -7 -2 -11 -11z"/>
<path d="M5993 5763 c3 -5 -8 -8 -23 -9 -15 -1 -42 -11 -59 -23 -25 -18 -29
-26 -20 -37 9 -11 8 -14 -5 -15 -36 -3 -39 -4 -44 -17 -4 -12 18 -5 131 41 16
7 25 17 22 25 -2 7 0 10 5 7 6 -3 10 3 10 14 0 12 -5 21 -11 21 -5 0 -8 -3 -6
-7z"/>
<path d="M2661 5934 c0 -11 3 -14 6 -6 3 7 2 16 -1 19 -3 4 -6 -2 -5 -13z"/>
<path d="M1720 5896 c0 -2 8 -10 18 -17 15 -13 16 -12 3 4 -13 16 -21 21 -21
13z"/>
<path d="M7090 5790 c-30 -9 -108 -32 -172 -50 -78 -21 -118 -37 -118 -46 0
-17 3 -17 92 1 124 26 268 74 268 90 0 23 -12 24 -70 5z"/>
<path d="M6673 5682 c-55 -12 -73 -20 -73 -33 0 -15 5 -15 75 -1 60 13 75 20
75 34 0 10 -1 18 -2 17 -2 -1 -36 -8 -75 -17z"/>
<path d="M7060 5650 c-69 -22 -133 -40 -142 -40 -21 0 -29 -12 -19 -29 9 -15
30 -10 209 45 76 24 112 39 112 49 0 22 -21 18 -160 -25z"/>
<path d="M6425 5624 c-105 -24 -136 -35 -130 -44 9 -14 -9 -12 -24 3 -11 10
-13 10 -7 0 4 -7 3 -13 -1 -13 -5 0 -15 6 -23 13 -12 10 -12 9 -1 -5 16 -22
-2 -24 -19 -3 -7 9 -15 13 -18 11 -2 -3 3 -12 12 -21 14 -14 23 -15 71 -4 31
7 58 16 61 20 2 5 11 6 19 2 8 -3 15 -1 15 5 0 5 12 7 26 4 18 -3 25 -1 20 6
-4 6 2 8 14 5 11 -3 20 -1 20 5 0 6 8 8 18 5 10 -2 24 3 31 11 17 20 2 20 -84
0z"/>
<path d="M6645 5551 c-66 -16 -194 -45 -285 -65 -91 -20 -218 -50 -282 -67
-100 -27 -118 -35 -118 -51 0 -16 5 -19 23 -14 127 35 316 82 431 106 189 39
370 81 375 85 6 6 -8 35 -16 34 -4 0 -62 -13 -128 -28z"/>
<path d="M7190 5554 c-87 -29 -714 -179 -832 -200 -44 -7 -74 -27 -65 -41 5
-7 41 -4 109 12 57 12 159 35 228 50 202 44 479 112 573 141 63 20 87 32 85
42 -5 23 -17 23 -98 -4z"/>
<path d="M6138 5533 c7 -3 16 -2 19 1 4 3 -2 6 -13 5 -11 0 -14 -3 -6 -6z"/>
<path d="M7185 5419 c-93 -26 -284 -76 -422 -110 -177 -43 -253 -66 -253 -75
0 -8 10 -14 24 -14 46 0 595 139 804 203 37 11 41 15 30 29 -12 14 -30 11
-183 -33z"/>
<path d="M5815 5334 c-43 -16 -73 -40 -63 -50 12 -11 123 32 126 49 4 20 -10
20 -63 1z"/>
<path d="M7325 5321 c-49 -16 -161 -46 -247 -67 -144 -36 -177 -51 -150 -68
11 -7 161 28 370 85 131 35 162 47 162 61 0 25 -27 22 -135 -11z"/>
<path d="M6060 5285 c-63 -18 -131 -40 -150 -48 -19 -7 -56 -22 -82 -31 -35
-13 -48 -23 -48 -37 0 -10 1 -19 3 -19 2 0 50 18 108 39 57 22 150 52 207 67
77 20 102 31 100 42 -2 9 -7 17 -13 18 -5 2 -62 -12 -125 -31z"/>
<path d="M6218 5185 c-184 -48 -188 -49 -188 -71 0 -18 -11 -20 217 36 150 37
183 48 183 63 0 24 -21 22 -212 -28z"/>
<path d="M6745 5169 c-16 -5 -122 -29 -235 -54 -113 -25 -254 -59 -315 -75
-182 -48 -441 -150 -460 -180 -16 -26 11 -26 68 -1 215 97 437 161 937 267
103 22 100 21 94 39 -7 17 -42 18 -89 4z"/>
<path d="M5878 5075 c-82 -36 -279 -144 -306 -168 -13 -12 -19 -24 -13 -30 5
-5 57 18 126 56 64 36 150 80 191 98 53 23 74 38 74 51 0 23 -3 22 -72 -7z"/>
<path d="M5531 5010 c-41 -28 -99 -76 -130 -108 -115 -120 -161 -174 -161
-188 0 -21 18 -17 25 5 12 38 171 187 268 251 88 58 118 90 85 90 -7 0 -46
-23 -87 -50z"/>
<path d="M5435 4800 c-10 -11 -21 -17 -25 -15 -15 10 -170 -172 -170 -199 0
-12 14 0 38 31 22 26 71 83 111 126 40 42 71 77 69 77 -3 0 -13 -9 -23 -20z"/>
<path d="M5635 4790 c-3 -5 -1 -10 4 -10 6 0 11 5 11 10 0 6 -2 10 -4 10 -3 0
-8 -4 -11 -10z"/>
<path d="M5368 4628 c-64 -66 -108 -126 -107 -147 0 -13 2 -13 12 2 32 50 140
172 151 171 7 -1 13 5 13 12 0 25 -17 15 -69 -38z"/>
<path d="M3157 5804 c-4 -4 -7 -13 -7 -19 0 -19 211 -81 425 -125 55 -11 108
-23 118 -26 12 -4 17 0 17 13 0 15 -23 24 -142 52 -129 30 -349 90 -389 106
-8 3 -18 2 -22 -1z"/>
<path d="M3095 5692 c-25 -25 37 -55 203 -98 110 -29 102 -28 102 -5 0 13 -9
21 -32 25 -18 3 -86 23 -151 44 -64 21 -119 36 -122 34z"/>
<path d="M3027 5573 c-20 -20 6 -34 131 -71 147 -44 295 -80 597 -143 255 -54
265 -55 265 -36 0 17 -24 26 -146 51 -350 74 -649 145 -753 181 -82 27 -85 28
-94 18z"/>
<path d="M3517 5566 c-3 -8 -2 -18 2 -21 10 -5 363 -85 466 -105 33 -6 129
-30 213 -52 84 -23 155 -38 158 -35 31 31 -136 80 -621 181 -93 20 -180 39
-191 42 -14 4 -23 0 -27 -10z"/>
<path d="M4148 5533 c7 -3 16 -2 19 1 4 3 -2 6 -13 5 -11 0 -14 -3 -6 -6z"/>
<path d="M2946 5454 c-4 -9 -5 -18 -4 -19 26 -21 583 -169 599 -160 31 20 0
35 -143 70 -84 21 -218 58 -298 82 -79 23 -145 43 -146 43 -1 0 -5 -7 -8 -16z"/>
<path d="M2854 5339 c-3 -6 -2 -15 2 -19 5 -5 99 -34 209 -63 286 -77 305 -81
318 -68 7 7 7 14 1 20 -5 5 -81 27 -169 50 -88 22 -198 52 -244 66 -95 28
-107 30 -117 14z"/>
<path d="M4437 5336 c-8 -19 121 -72 136 -57 14 14 4 23 -62 49 -63 26 -67 26
-74 8z"/>
<path d="M4116 5305 c-3 -9 0 -18 7 -20 6 -3 83 -27 170 -55 87 -28 178 -60
203 -70 l44 -19 0 23 c0 21 -12 28 -102 60 -97 34 -295 96 -309 96 -4 0 -10
-7 -13 -15z"/>
<path d="M3645 5270 c-11 -18 4 -28 69 -40 61 -11 86 -9 86 9 0 9 -105 41
-133 41 -9 0 -19 -4 -22 -10z"/>
<path d="M3873 5224 c-3 -8 -4 -17 -1 -19 2 -2 83 -24 179 -49 258 -66 422
-130 597 -235 66 -38 104 -56 108 -49 10 16 -32 49 -139 112 -151 88 -418 185
-645 234 -80 17 -94 18 -99 6z"/>
<path d="M3489 5174 c-7 -9 -8 -18 -3 -24 5 -4 63 -20 129 -34 272 -58 368
-80 520 -123 157 -45 318 -103 392 -143 46 -25 53 -25 53 -1 0 13 -25 30 -97
63 -173 80 -390 143 -788 228 -82 18 -160 36 -172 41 -15 5 -25 3 -34 -7z"/>
<path d="M5033 5075 c0 -18 19 -15 25 3 2 7 -3 12 -10 12 -8 0 -15 -7 -15 -15z"/>
<path d="M4880 4812 c0 -5 34 -48 75 -95 41 -47 83 -100 95 -119 11 -18 20
-26 20 -18 0 8 -10 31 -23 51 -26 43 -167 195 -167 181z"/>
<path d="M4880 4680 c0 -9 23 -38 50 -65 28 -28 65 -71 82 -97 32 -50 50 -62
41 -28 -10 37 -172 216 -173 190z"/>
<path d="M8254 5305 c-10 -8 -14 -15 -8 -15 5 0 19 7 30 15 10 8 14 15 8 15
-5 0 -19 -7 -30 -15z"/>
<path d="M7580 5070 c-20 -6 -21 -8 -5 -8 11 0 29 3 40 8 25 11 -1 11 -35 0z"/>
<path d="M7265 4990 c-28 -7 -28 -8 -5 -9 14 -1 34 -3 45 -5 11 -2 14 -1 6 1
-12 4 -12 6 0 14 12 7 12 9 -1 8 -8 -1 -28 -5 -45 -9z"/>
<path d="M7350 4980 c0 -6 7 -10 15 -10 8 0 15 2 15 4 0 2 -7 6 -15 10 -8 3
-15 1 -15 -4z"/>
<path d="M7151 4948 c-1 -10 6 -18 14 -18 8 0 15 8 15 18 0 13 -2 14 -9 3 -7
-11 -9 -11 -14 0 -4 10 -6 9 -6 -3z"/>
<path d="M7278 4953 c7 -3 16 -2 19 1 4 3 -2 6 -13 5 -11 0 -14 -3 -6 -6z"/>
<path d="M7068 4944 c-3 -3 -26 -8 -50 -10 -23 -3 -44 -9 -46 -13 -1 -5 -13
-6 -26 -4 -13 3 -27 0 -30 -6 -5 -7 1 -11 14 -11 12 0 18 -4 15 -10 -8 -13 6
-13 61 1 24 6 44 16 44 21 0 5 10 6 23 3 15 -4 18 -3 8 3 -10 7 -10 11 -1 17
7 4 16 1 21 -6 7 -12 9 -12 9 0 0 11 3 11 15 1 12 -10 15 -10 15 2 0 14 -60
25 -72 12z"/>
<path d="M7913 4913 c9 -2 23 -2 30 0 6 3 -1 5 -18 5 -16 0 -22 -2 -12 -5z"/>
<path d="M7853 4903 c9 -2 23 -2 30 0 6 3 -1 5 -18 5 -16 0 -22 -2 -12 -5z"/>
<path d="M7388 4893 c6 -2 18 -2 25 0 6 3 1 5 -13 5 -14 0 -19 -2 -12 -5z"/>
<path d="M6742 4873 c-22 -8 -2 -23 31 -23 23 0 28 3 17 9 -8 6 -17 8 -21 5
-4 -2 -9 0 -11 4 -1 5 -9 7 -16 5z"/>
<path d="M6822 4865 c-11 -13 -9 -15 8 -15 11 0 20 7 20 15 0 19 -11 19 -28 0z"/>
<path d="M6535 4830 c-16 -7 -17 -9 -3 -9 9 -1 20 4 23 9 7 11 7 11 -20 0z"/>
<path d="M6740 4750 c-23 -7 -23 -8 -3 -9 12 -1 25 4 28 9 3 6 5 10 3 9 -2 -1
-14 -5 -28 -9z"/>
<path d="M5900 4630 c-9 -6 -10 -10 -3 -10 6 0 15 5 18 10 8 12 4 12 -15 0z"/>
<path d="M5777 4574 c-27 -14 -47 -27 -45 -29 4 -4 96 39 106 50 12 12 -17 2
-61 -21z"/>
<path d="M6200 4560 c-9 -6 -10 -10 -3 -10 6 0 15 5 18 10 8 12 4 12 -15 0z"/>
<path d="M2606 5091 c5 -5 20 -12 34 -16 24 -7 24 -7 5 9 -21 16 -56 23 -39 7z"/>
<path d="M2670 5071 c0 -10 48 -25 68 -22 6 1 12 -3 12 -9 0 -5 -10 -10 -22
-11 -22 -1 -22 -1 2 -9 35 -11 60 -11 35 1 -17 8 -17 8 7 6 15 -1 26 3 25 8
-1 6 -6 9 -11 7 -5 -2 -12 2 -16 9 -4 6 -21 12 -38 13 -17 1 -34 5 -38 9 -10
10 -24 9 -24 -2z"/>
<path d="M2820 5010 c0 -5 7 -7 15 -4 8 4 15 8 15 10 0 2 -7 4 -15 4 -8 0 -15
-4 -15 -10z"/>
<path d="M2763 4909 c11 -7 28 -7 45 -1 25 8 23 9 -18 10 -35 1 -41 -1 -27 -9z"/>
<path d="M3790 4670 c0 -5 7 -10 16 -10 8 0 12 5 9 10 -3 6 -10 10 -16 10 -5
0 -9 -4 -9 -10z"/>
<path d="M2343 4915 c20 -11 32 -13 45 -6 15 10 15 10 -3 11 -11 0 -31 3 -45
6 -24 5 -24 5 3 -11z"/>
<path d="M6460 3964 c-12 -19 -20 -37 -18 -39 2 -3 15 13 27 35 28 50 21 53
-9 4z"/>
<path d="M5093 4023 c15 -2 37 -2 50 0 12 2 0 4 -28 4 -27 0 -38 -2 -22 -4z"/>
<path d="M5198 4023 c12 -2 30 -2 40 0 9 3 -1 5 -23 4 -22 0 -30 -2 -17 -4z"/>
<path d="M5288 4013 c7 -3 16 -2 19 1 4 3 -2 6 -13 5 -11 0 -14 -3 -6 -6z"/>
<path d="M4988 4003 c7 -3 16 -2 19 1 4 3 -2 6 -13 5 -11 0 -14 -3 -6 -6z"/>
<path d="M5080 4000 c-183 -22 -290 -88 -290 -181 0 -88 113 -165 275 -188
182 -26 376 30 442 128 28 42 29 76 3 119 -54 88 -248 143 -430 122z"/>
<path d="M5328 4003 c6 -2 18 -2 25 0 6 3 1 5 -13 5 -14 0 -19 -2 -12 -5z"/>
<path d="M1825 3644 c33 -7 83 -16 111 -19 28 -2 64 -9 79 -15 15 -6 30 -9 32
-6 6 5 -94 38 -132 43 -16 3 -57 6 -90 8 l-60 4 60 -15z"/>
<path d="M1843 3613 c9 -2 25 -2 35 0 9 3 1 5 -18 5 -19 0 -27 -2 -17 -5z"/>
<path d="M5040 3349 c0 -5 5 -7 10 -4 6 3 10 8 10 11 0 2 -4 4 -10 4 -5 0 -10
-5 -10 -11z"/>
<path d="M8218 3343 c7 -3 16 -2 19 1 4 3 -2 6 -13 5 -11 0 -14 -3 -6 -6z"/>
<path d="M5240 3199 c0 -5 5 -7 10 -4 6 3 10 8 10 11 0 2 -4 4 -10 4 -5 0 -10
-5 -10 -11z"/>
<path d="M2678 2973 c7 -3 16 -2 19 1 4 3 -2 6 -13 5 -11 0 -14 -3 -6 -6z"/>
<path d="M5917 3129 c7 -7 15 -10 18 -7 3 3 -2 9 -12 12 -14 6 -15 5 -6 -5z"/>
<path d="M3937 2843 c3 -7 6 -13 8 -13 2 0 5 6 8 13 3 8 -1 14 -8 14 -7 0 -11
-6 -8 -14z"/>
<path d="M6330 2815 c-7 -9 -10 -18 -7 -22 4 -3 9 2 13 11 3 9 11 13 17 9 6
-3 7 -1 3 5 -9 15 -11 15 -26 -3z"/>
<path d="M5595 2519 c-4 -6 -5 -12 -2 -15 2 -3 7 2 10 11 7 17 1 20 -8 4z"/>
<path d="M3630 2496 c0 -2 7 -7 16 -10 8 -3 12 -2 9 4 -6 10 -25 14 -25 6z"/>
<path d="M4200 2486 c0 -2 7 -7 16 -10 8 -3 12 -2 9 4 -6 10 -25 14 -25 6z"/>
<path d="M3570 2430 c8 -5 24 -10 35 -10 17 0 17 2 5 10 -8 5 -24 10 -35 10
-17 0 -17 -2 -5 -10z"/>
<path d="M3159 2323 c-13 -16 -12 -17 4 -4 16 13 21 21 13 21 -2 0 -10 -8 -17
-17z"/>
<path d="M4229 1943 c-1 -5 -1 -12 0 -16 1 -4 -6 -10 -14 -13 -8 -4 -15 -11
-15 -17 0 -5 8 -3 18 6 10 10 19 24 19 32 0 15 -6 21 -8 8z"/>
<path d="M5282 1380 c0 -19 2 -27 5 -17 2 9 2 25 0 35 -3 9 -5 1 -5 -18z"/>
<path d="M3482 8674 c-14 -9 -22 -26 -22 -43 0 -51 76 -63 94 -15 9 25 7 33
-14 54 -24 24 -29 24 -58 4z"/>
<path d="M6741 8671 c-27 -27 -26 -34 2 -67 20 -23 26 -25 45 -15 33 17 43 43
29 72 -16 31 -50 36 -76 10z"/>
<path d="M7008 8529 c-19 -11 -24 -54 -9 -78 13 -20 62 -17 78 5 19 26 16 51
-9 68 -26 18 -36 19 -60 5z"/>
<path d="M3212 8518 c-16 -16 -15 -53 2 -67 20 -17 67 -10 79 11 18 27 -7 68
-41 68 -15 0 -33 -5 -40 -12z"/>
<path d="M7235 8344 c-43 -43 19 -110 65 -69 25 23 26 47 2 68 -23 21 -46 21
-67 1z"/>
<path d="M2982 8338 c-29 -29 -7 -78 35 -78 32 0 58 42 43 69 -12 24 -58 29
-78 9z"/>
<path d="M2791 8166 c-7 -8 -11 -27 -9 -43 6 -52 88 -40 88 13 0 38 -56 58
-79 30z"/>
<path d="M7432 8168 c-21 -21 -14 -57 14 -70 31 -14 57 -1 62 31 7 42 -46 69
-76 39z"/>
<path d="M1585 6915 c-14 -13 -25 -31 -25 -40 0 -18 43 -65 60 -65 20 0 49 20
60 40 15 28 2 66 -26 79 -35 16 -42 14 -69 -14z"/>
<path d="M8652 6924 c-26 -18 -30 -65 -6 -88 38 -38 104 -10 104 45 0 29 -31
59 -60 59 -9 0 -26 -7 -38 -16z"/>
</g>
</svg>
